<?xml version="1.0" standalone="no"?>
<!DOCTYPE svg PUBLIC "-//W3C//DTD SVG 20010904//EN"
 "http://www.w3.org/TR/2001/REC-SVG-20010904/DTD/svg10.dtd">
<svg version="1.0" xmlns="http://www.w3.org/2000/svg"
 width="512.000000pt" height="512.000000pt" viewBox="0 0 512.000000 512.000000"
 preserveAspectRatio="xMidYMid meet">
<metadata>
Created by potrace 1.16, written by Peter Selinger 2001-2019
</metadata>
<g transform="translate(0.000000,512.000000) scale(0.100000,-0.100000)"
fill="#000000" stroke="none">
<path d="M295 5040 c-61 -62 -86 -80 -107 -80 -24 0 -28 -4 -28 -28 0 -21 -18
-46 -80 -107 -57 -57 -80 -87 -80 -105 0 -22 9 -15 80 55 l80 80 0 -75 0 -75
-80 -80 c-57 -57 -80 -87 -80 -105 0 -22 9 -15 80 55 l80 80 0 -75 0 -75 -80
-80 c-57 -57 -80 -87 -80 -105 0 -22 9 -15 80 55 l80 80 0 -75 0 -75 -80 -80
c-57 -57 -80 -87 -80 -105 0 -22 9 -15 80 55 l80 80 0 -75 0 -75 -80 -80 c-57
-57 -80 -87 -80 -105 0 -22 9 -15 80 55 l80 80 0 -75 0 -75 -80 -80 c-57 -57
-80 -87 -80 -105 0 -22 9 -15 80 55 l80 80 0 -75 0 -75 -80 -80 c-57 -57 -80
-87 -80 -105 0 -22 9 -15 80 55 l80 80 0 -75 0 -75 -80 -80 c-57 -57 -80 -87
-80 -105 0 -22 9 -15 80 55 l80 80 0 -75 0 -75 -80 -80 c-57 -57 -80 -87 -80
-105 0 -22 9 -15 80 55 l80 80 0 -75 0 -75 -80 -80 c-57 -57 -80 -87 -80 -105
0 -22 9 -15 80 55 l80 80 0 -75 0 -75 -80 -80 c-57 -57 -80 -87 -80 -105 0
-22 9 -15 80 55 l80 80 0 -75 0 -75 -80 -80 c-57 -57 -80 -87 -80 -105 0 -22
9 -15 80 55 l80 80 0 -75 0 -75 -80 -80 c-57 -57 -80 -87 -80 -105 0 -22 9
-15 80 55 l80 80 0 -75 0 -75 -80 -80 c-57 -57 -80 -87 -80 -105 0 -22 9 -15
80 55 l80 80 0 -75 0 -75 -80 -80 c-57 -57 -80 -87 -80 -105 0 -22 9 -15 80
55 l80 80 0 -75 0 -75 -80 -80 c-57 -57 -80 -87 -80 -105 0 -22 9 -15 80 55
l80 80 0 -75 0 -75 -80 -80 c-57 -57 -80 -87 -80 -105 0 -22 9 -15 80 55 l80
80 0 -75 0 -75 -80 -80 c-57 -57 -80 -87 -80 -105 0 -22 9 -15 80 55 l80 80 0
-75 0 -75 -80 -80 c-57 -57 -80 -87 -80 -105 0 -22 9 -15 80 55 l80 80 0 -75
0 -75 -80 -80 c-57 -57 -80 -87 -80 -105 0 -22 9 -15 80 55 l80 80 0 -75 0
-75 -80 -80 c-57 -57 -80 -87 -80 -105 0 -22 9 -15 80 55 l80 80 0 -75 0 -75
-80 -80 c-57 -57 -80 -87 -80 -105 0 -22 9 -15 80 55 l80 80 0 -75 0 -75 -80
-80 c-57 -57 -80 -87 -80 -105 0 -22 9 -15 80 55 l80 80 0 -75 0 -75 -80 -80
c-57 -57 -80 -87 -80 -105 0 -22 9 -15 80 55 l80 80 0 -48 c0 -45 1 -47 27
-47 26 0 22 -6 -52 -80 -70 -71 -77 -80 -55 -80 18 0 48 23 105 80 l80 80 75
0 75 0 -80 -80 c-70 -71 -77 -80 -55 -80 18 0 48 23 105 80 l80 80 75 0 75 0
-80 -80 c-70 -71 -77 -80 -55 -80 18 0 48 23 105 80 l80 80 75 0 75 0 -80 -80
c-70 -71 -77 -80 -55 -80 18 0 48 23 105 80 l80 80 75 0 75 0 -80 -80 c-70
-71 -77 -80 -55 -80 18 0 48 23 105 80 l80 80 75 0 75 0 -80 -80 c-70 -71 -77
-80 -55 -80 18 0 48 23 105 80 l80 80 75 0 75 0 -80 -80 c-70 -71 -77 -80 -55
-80 18 0 48 23 105 80 l80 80 75 0 75 0 -80 -80 c-70 -71 -77 -80 -55 -80 18
0 48 23 105 80 l80 80 75 0 75 0 -80 -80 c-70 -71 -77 -80 -55 -80 18 0 48 23
105 80 l80 80 75 0 75 0 -80 -80 c-70 -71 -77 -80 -55 -80 18 0 48 23 105 80
l80 80 75 0 75 0 -80 -80 c-70 -71 -77 -80 -55 -80 18 0 48 23 105 80 l80 80
75 0 75 0 -80 -80 c-70 -71 -77 -80 -55 -80 18 0 48 23 105 80 l80 80 75 0 75
0 -80 -80 c-70 -71 -77 -80 -55 -80 18 0 48 23 105 80 l80 80 75 0 75 0 -80
-80 c-70 -71 -77 -80 -55 -80 18 0 48 23 105 80 l80 80 75 0 75 0 -80 -80
c-70 -71 -77 -80 -55 -80 18 0 48 23 105 80 l80 80 75 0 75 0 -80 -80 c-70
-71 -77 -80 -55 -80 18 0 48 23 105 80 l80 80 75 0 75 0 -80 -80 c-70 -71 -77
-80 -55 -80 18 0 48 23 105 80 l80 80 75 0 75 0 -80 -80 c-70 -71 -77 -80 -55
-80 18 0 48 23 105 80 l80 80 75 0 75 0 -80 -80 c-70 -71 -77 -80 -55 -80 18
0 48 23 105 80 l80 80 75 0 75 0 -80 -80 c-70 -71 -77 -80 -55 -80 18 0 48 23
105 80 l80 80 75 0 75 0 -80 -80 c-70 -71 -77 -80 -55 -80 18 0 48 23 105 80
l80 80 75 0 75 0 -80 -80 c-70 -71 -77 -80 -55 -80 18 0 48 23 105 80 l80 80
75 0 75 0 -80 -80 c-70 -71 -77 -80 -55 -80 18 0 48 23 105 80 l80 80 75 0 75
0 -80 -80 c-70 -71 -77 -80 -55 -80 18 0 48 23 105 80 77 78 81 80 127 80 l48
0 0 48 c0 46 2 50 80 127 57 57 80 87 80 105 0 22 -9 15 -80 -55 l-80 -80 0
75 0 75 80 80 c57 57 80 87 80 105 0 22 -9 15 -80 -55 l-80 -80 0 75 0 75 80
80 c57 57 80 87 80 105 0 22 -9 15 -80 -55 l-80 -80 0 75 0 75 80 80 c57 57
80 87 80 105 0 22 -9 15 -80 -55 l-80 -80 0 75 0 75 80 80 c57 57 80 87 80
105 0 22 -9 15 -80 -55 l-80 -80 0 75 0 75 80 80 c57 57 80 87 80 105 0 22 -9
15 -80 -55 l-80 -80 0 75 0 75 80 80 c57 57 80 87 80 105 0 22 -9 15 -80 -55
l-80 -80 0 75 0 75 80 80 c57 57 80 87 80 105 0 22 -9 15 -80 -55 l-80 -80 0
75 0 75 80 80 c57 57 80 87 80 105 0 22 -9 15 -80 -55 l-80 -80 0 75 0 75 80
80 c57 57 80 87 80 105 0 22 -9 15 -80 -55 l-80 -80 0 75 0 75 80 80 c57 57
80 87 80 105 0 22 -9 15 -80 -55 l-80 -80 0 75 0 75 80 80 c57 57 80 87 80
105 0 22 -9 15 -80 -55 l-80 -80 0 75 0 75 80 80 c57 57 80 87 80 105 0 22 -9
15 -80 -55 l-80 -80 0 75 0 75 80 80 c57 57 80 87 80 105 0 22 -9 15 -80 -55
l-80 -80 0 75 0 75 80 80 c57 57 80 87 80 105 0 22 -9 15 -80 -55 l-80 -80 0
75 0 75 80 80 c57 57 80 87 80 105 0 22 -9 15 -80 -55 l-80 -80 0 75 0 75 80
80 c57 57 80 87 80 105 0 22 -9 15 -80 -55 l-80 -80 0 75 0 75 80 80 c57 57
80 87 80 105 0 22 -9 15 -80 -55 l-80 -80 0 75 0 75 80 80 c57 57 80 87 80
105 0 22 -9 15 -80 -55 l-80 -80 0 75 0 75 80 80 c57 57 80 87 80 105 0 22 -9
15 -80 -55 l-80 -80 0 75 0 75 80 80 c57 57 80 87 80 105 0 22 -9 15 -80 -55
l-80 -80 0 75 0 75 80 80 c57 57 80 87 80 105 0 22 -9 15 -80 -55 l-80 -80 0
75 0 75 80 80 c57 57 80 87 80 105 0 22 -9 15 -80 -55 l-80 -80 0 75 0 75 80
80 c57 57 80 87 80 105 0 22 -9 15 -80 -55 -74 -74 -80 -78 -80 -52 0 26 -2
27 -47 27 l-48 0 80 80 c70 71 77 80 55 80 -18 0 -48 -23 -105 -80 l-80 -80
-75 0 -75 0 80 80 c70 71 77 80 55 80 -18 0 -48 -23 -105 -80 l-80 -80 -75 0
-75 0 80 80 c70 71 77 80 55 80 -18 0 -48 -23 -105 -80 l-80 -80 -75 0 -75 0
80 80 c70 71 77 80 55 80 -18 0 -48 -23 -105 -80 l-80 -80 -75 0 -75 0 80 80
c70 71 77 80 55 80 -18 0 -48 -23 -105 -80 l-80 -80 -75 0 -75 0 80 80 c70 71
77 80 55 80 -18 0 -48 -23 -105 -80 l-80 -80 -75 0 -75 0 80 80 c70 71 77 80
55 80 -18 0 -48 -23 -105 -80 l-80 -80 -75 0 -75 0 80 80 c70 71 77 80 55 80
-18 0 -48 -23 -105 -80 l-80 -80 -75 0 -75 0 80 80 c70 71 77 80 55 80 -18 0
-48 -23 -105 -80 l-80 -80 -75 0 -75 0 80 80 c70 71 77 80 55 80 -18 0 -48
-23 -105 -80 l-80 -80 -75 0 -75 0 80 80 c70 71 77 80 55 80 -18 0 -48 -23
-105 -80 l-80 -80 -75 0 -75 0 80 80 c70 71 77 80 55 80 -18 0 -48 -23 -105
-80 l-80 -80 -75 0 -75 0 80 80 c70 71 77 80 55 80 -18 0 -48 -23 -105 -80
l-80 -80 -75 0 -75 0 80 80 c70 71 77 80 55 80 -18 0 -48 -23 -105 -80 l-80
-80 -75 0 -75 0 80 80 c70 71 77 80 55 80 -18 0 -48 -23 -105 -80 l-80 -80
-75 0 -75 0 80 80 c70 71 77 80 55 80 -18 0 -48 -23 -105 -80 l-80 -80 -75 0
-75 0 80 80 c70 71 77 80 55 80 -18 0 -48 -23 -105 -80 l-80 -80 -75 0 -75 0
80 80 c70 71 77 80 55 80 -18 0 -48 -23 -105 -80 l-80 -80 -75 0 -75 0 80 80
c70 71 77 80 55 80 -18 0 -48 -23 -105 -80 l-80 -80 -75 0 -75 0 80 80 c70 71
77 80 55 80 -18 0 -48 -23 -105 -80 l-80 -80 -75 0 -75 0 80 80 c70 71 77 80
55 80 -18 0 -48 -23 -105 -80 l-80 -80 -75 0 -75 0 80 80 c70 71 77 80 55 80
-18 0 -48 -23 -105 -80 l-80 -80 -75 0 -75 0 80 80 c70 71 77 80 55 80 -18 0
-48 -23 -105 -80 l-80 -80 -75 0 -75 0 80 80 c70 71 77 80 55 80 -18 0 -48
-23 -105 -80z"/>
</g>
</svg>
