<?xml version="1.0" standalone="no"?>
<!DOCTYPE svg PUBLIC "-//W3C//DTD SVG 20010904//EN"
 "http://www.w3.org/TR/2001/REC-SVG-20010904/DTD/svg10.dtd">
<svg version="1.0" xmlns="http://www.w3.org/2000/svg"
 width="920.000000pt" height="920.000000pt" viewBox="0 0 920.000000 920.000000"
 preserveAspectRatio="xMidYMid meet">
<metadata>
Created by potrace 1.16, written by Peter Selinger 2001-2019
</metadata>
<g transform="translate(0.000000,920.000000) scale(0.100000,-0.100000)"
fill="#000000" stroke="none">
<path d="M1922 8998 c-7 -7 -12 -26 -12 -44 0 -17 -7 -37 -15 -44 -9 -8 -15
-30 -15 -60 0 -30 -6 -52 -15 -60 -9 -8 -15 -29 -15 -56 0 -23 -4 -46 -10 -49
-5 -3 -10 -28 -10 -54 0 -31 -5 -53 -15 -61 -9 -8 -15 -30 -15 -60 0 -30 -6
-52 -15 -60 -9 -7 -15 -29 -15 -55 0 -26 -6 -48 -15 -55 -9 -8 -15 -30 -15
-60 0 -30 -6 -52 -15 -60 -9 -7 -15 -29 -15 -55 0 -26 -6 -48 -15 -55 -9 -8
-15 -30 -15 -60 0 -30 -6 -52 -15 -60 -8 -7 -15 -27 -15 -45 0 -18 -7 -38 -15
-45 -9 -8 -15 -29 -15 -56 0 -23 -4 -46 -10 -49 -5 -3 -10 -28 -10 -54 0 -31
-5 -53 -15 -61 -9 -8 -15 -30 -15 -60 0 -30 -6 -52 -15 -60 -9 -7 -15 -29 -15
-55 0 -26 -6 -48 -15 -55 -9 -8 -15 -30 -15 -60 0 -30 -6 -52 -15 -60 -9 -8
-15 -30 -15 -60 0 -30 -6 -52 -15 -60 -9 -7 -15 -29 -15 -55 0 -26 -6 -48 -15
-55 -9 -8 -15 -30 -15 -60 0 -30 -6 -52 -15 -60 -8 -7 -15 -27 -15 -46 0 -18
-4 -36 -10 -39 -5 -3 -10 -26 -10 -49 0 -27 -6 -48 -15 -56 -9 -8 -15 -30 -15
-60 0 -30 -6 -52 -15 -60 -9 -7 -15 -29 -15 -55 0 -26 -6 -48 -15 -55 -9 -8
-15 -30 -15 -60 0 -30 -6 -52 -15 -60 -9 -8 -15 -30 -15 -60 0 -30 -6 -52 -15
-60 -9 -7 -15 -29 -15 -55 0 -26 -6 -48 -15 -55 -9 -8 -15 -30 -15 -60 0 -30
-6 -52 -15 -60 -8 -7 -15 -27 -15 -46 0 -18 -5 -36 -10 -39 -5 -3 -10 -26 -10
-49 0 -27 -6 -48 -15 -56 -9 -8 -15 -30 -15 -60 0 -30 -6 -52 -15 -60 -9 -8
-15 -30 -15 -60 0 -30 -6 -52 -15 -60 -9 -7 -15 -29 -15 -55 0 -26 -6 -48 -15
-55 -9 -8 -15 -30 -15 -60 0 -30 -6 -52 -15 -60 -9 -7 -15 -29 -15 -55 0 -26
-6 -48 -15 -55 -9 -8 -15 -30 -15 -60 0 -30 -6 -52 -15 -60 -10 -8 -15 -30
-15 -61 0 -26 -5 -51 -10 -54 -6 -3 -10 -19 -10 -34 0 -16 -7 -34 -15 -41 -9
-8 -15 -30 -15 -60 0 -30 -6 -52 -15 -60 -9 -8 -15 -30 -15 -60 0 -30 -6 -52
-15 -60 -9 -7 -15 -29 -15 -55 0 -26 -6 -48 -15 -55 -9 -8 -15 -30 -15 -60 0
-30 -6 -52 -15 -60 -9 -8 -15 -30 -15 -60 0 -30 -6 -52 -15 -60 -9 -7 -15 -29
-15 -55 0 -26 -6 -48 -15 -55 -10 -8 -15 -30 -15 -61 0 -26 -4 -51 -10 -54 -5
-3 -10 -26 -10 -49 0 -27 -6 -48 -15 -56 -8 -7 -15 -27 -15 -45 0 -18 -7 -38
-15 -45 -9 -8 -15 -30 -15 -60 0 -30 -6 -52 -15 -60 -9 -7 -15 -29 -15 -55 0
-26 -6 -48 -15 -55 -9 -8 -15 -30 -15 -60 0 -30 -6 -52 -15 -60 -9 -8 -15 -30
-15 -60 0 -30 -6 -52 -15 -60 -9 -7 -15 -29 -15 -55 0 -26 -6 -48 -15 -55 -10
-8 -15 -30 -15 -61 0 -26 -5 -51 -10 -54 -6 -3 -10 -28 -10 -54 0 -31 -5 -53
-15 -61 -9 -7 -15 -29 -15 -55 0 -26 -6 -48 -15 -55 -8 -7 -15 -27 -15 -45 0
-18 -7 -38 -15 -45 -9 -8 -15 -30 -15 -60 0 -30 -6 -52 -15 -60 -9 -7 -15 -29
-15 -55 0 -26 -6 -48 -15 -55 -9 -8 -15 -30 -15 -60 0 -30 -6 -52 -15 -60 -9
-7 -15 -29 -15 -55 0 -26 -6 -48 -15 -55 -10 -8 -15 -30 -15 -61 0 -26 -4 -51
-10 -54 -5 -3 -10 -28 -10 -54 0 -31 -5 -53 -15 -61 -9 -7 -15 -29 -15 -55 0
-26 -6 -48 -15 -55 -19 -16 -21 -160 -3 -178 7 -7 26 -12 44 -12 17 0 37 -7
44 -15 7 -9 29 -15 55 -15 26 0 48 -6 55 -15 8 -9 30 -15 60 -15 30 0 52 -6
60 -15 8 -9 30 -15 60 -15 30 0 52 -6 60 -15 7 -9 29 -15 55 -15 26 0 48 -6
55 -15 8 -10 30 -15 61 -15 26 0 51 -4 54 -10 3 -5 28 -10 54 -10 31 0 53 -5
61 -15 7 -9 29 -15 55 -15 26 0 48 -6 55 -15 8 -9 30 -15 60 -15 30 0 52 -6
60 -15 7 -8 27 -15 45 -15 18 0 38 -7 45 -15 7 -9 29 -15 55 -15 26 0 48 -6
55 -15 8 -9 30 -15 60 -15 30 0 52 -6 60 -15 7 -9 29 -15 55 -15 26 0 48 -6
55 -15 8 -10 30 -15 61 -15 26 0 51 -4 54 -10 3 -5 28 -10 54 -10 31 0 53 -5
61 -15 7 -9 29 -15 55 -15 26 0 48 -6 55 -15 8 -9 30 -15 60 -15 30 0 52 -6
60 -15 7 -8 27 -15 45 -15 18 0 38 -7 45 -15 7 -9 29 -15 55 -15 26 0 48 -6
55 -15 8 -9 30 -15 60 -15 30 0 52 -6 60 -15 8 -9 30 -15 60 -15 30 0 52 -6
60 -15 8 -9 29 -15 56 -15 23 0 46 -4 49 -10 3 -5 28 -10 54 -10 31 0 53 -5
61 -15 7 -9 29 -15 55 -15 26 0 48 -6 55 -15 8 -9 30 -15 60 -15 30 0 52 -6
60 -15 8 -9 30 -15 60 -15 30 0 52 -6 60 -15 7 -8 25 -15 40 -15 15 0 33 -7
40 -15 8 -9 30 -15 60 -15 30 0 52 -6 60 -15 8 -9 30 -15 60 -15 30 0 52 -6
60 -15 8 -9 29 -15 56 -15 23 0 46 -4 49 -10 3 -5 28 -10 54 -10 31 0 53 -5
61 -15 8 -9 30 -15 60 -15 30 0 52 -6 60 -15 7 -9 29 -15 55 -15 26 0 48 -6
55 -15 8 -9 30 -15 60 -15 30 0 52 -6 60 -15 7 -9 29 -15 55 -15 26 0 48 -6
55 -15 7 -8 27 -15 45 -15 18 0 38 -7 45 -15 8 -9 30 -15 60 -15 30 0 52 -6
60 -15 8 -9 29 -15 56 -15 23 0 46 -4 49 -10 3 -5 28 -10 54 -10 31 0 53 -5
61 -15 8 -9 30 -15 60 -15 30 0 52 -6 60 -15 7 -9 29 -15 55 -15 26 0 48 -6
55 -15 8 -9 30 -15 60 -15 30 0 52 -6 60 -15 8 -9 30 -15 60 -15 30 0 52 -6
60 -15 7 -9 29 -15 55 -15 26 0 48 -6 55 -15 7 -8 27 -15 45 -15 18 0 38 -7
45 -15 8 -10 30 -15 61 -15 26 0 51 -4 54 -10 3 -5 26 -10 49 -10 27 0 48 -6
56 -15 8 -9 30 -15 60 -15 30 0 52 -6 60 -15 7 -9 29 -15 55 -15 26 0 48 -6
55 -15 8 -9 30 -15 60 -15 30 0 52 -6 60 -15 8 -9 30 -15 60 -15 30 0 52 -6
60 -15 7 -9 29 -15 55 -15 26 0 48 -6 55 -15 7 -8 27 -15 45 -15 18 0 38 -7
45 -15 8 -10 30 -15 61 -15 26 0 51 -5 54 -10 3 -6 26 -10 49 -10 27 0 48 -6
56 -15 8 -9 30 -15 60 -15 30 0 52 -6 60 -15 8 -9 30 -15 60 -15 30 0 52 -6
60 -15 7 -9 29 -15 55 -15 26 0 48 -6 55 -15 8 -9 30 -15 60 -15 30 0 52 -6
60 -15 7 -9 29 -15 55 -15 26 0 48 -6 55 -15 8 -9 30 -15 60 -15 30 0 52 -6
60 -15 8 -10 31 -15 68 -15 47 0 60 4 84 27 23 22 28 35 28 74 0 29 6 51 15
59 9 8 15 30 15 60 0 30 6 52 15 60 9 7 15 29 15 55 0 26 6 48 15 55 9 8 15
30 15 60 0 30 6 52 15 60 9 8 15 30 15 60 0 30 6 52 15 60 9 7 15 29 15 55 0
26 6 48 15 55 10 8 15 30 15 61 0 26 4 51 10 54 6 3 10 21 10 39 0 19 7 39 15
46 9 7 15 29 15 55 0 26 6 48 15 55 9 8 15 30 15 60 0 30 6 52 15 60 9 7 15
29 15 55 0 26 6 48 15 55 9 8 15 30 15 60 0 30 6 52 15 60 9 8 15 30 15 60 0
30 6 52 15 60 9 7 15 29 15 55 0 26 6 48 15 55 10 8 15 30 15 61 0 26 4 51 10
54 5 3 10 28 10 54 0 31 5 53 15 61 8 7 15 25 15 40 0 15 7 33 15 40 9 8 15
30 15 60 0 30 6 52 15 60 9 8 15 30 15 60 0 30 6 52 15 60 9 7 15 29 15 55 0
26 6 48 15 55 9 8 15 30 15 60 0 30 6 52 15 60 9 7 15 29 15 55 0 26 6 48 15
55 10 8 15 30 15 61 0 26 4 51 10 54 6 3 10 28 10 54 0 31 5 53 15 61 9 7 15
29 15 55 0 26 6 48 15 55 8 7 15 27 15 45 0 18 7 38 15 45 9 8 15 30 15 60 0
30 6 52 15 60 9 7 15 29 15 55 0 26 6 48 15 55 9 8 15 30 15 60 0 30 6 52 15
60 9 8 15 30 15 60 0 30 6 52 15 60 9 8 15 29 15 56 0 23 4 46 10 49 5 3 10
28 10 54 0 31 5 53 15 61 9 7 15 29 15 55 0 26 6 48 15 55 8 7 15 27 15 45 0
18 7 38 15 45 9 8 15 30 15 60 0 30 6 52 15 60 9 7 15 29 15 55 0 26 6 48 15
55 9 8 15 30 15 60 0 30 6 52 15 60 9 8 15 30 15 60 0 30 6 52 15 60 9 8 15
29 15 56 0 23 5 46 10 49 6 3 10 28 10 54 0 31 5 53 15 61 9 8 15 30 15 60 0
30 6 52 15 60 9 7 15 29 15 55 0 26 6 48 15 55 8 7 15 27 15 45 0 18 7 38 15
45 9 8 15 30 15 60 0 30 6 52 15 60 9 7 15 29 15 55 0 26 6 48 15 55 9 8 15
30 15 60 0 30 6 52 15 60 9 8 15 29 15 56 0 23 5 46 10 49 6 3 10 28 10 54 0
31 5 53 15 61 9 8 15 30 15 60 0 30 6 52 15 60 9 7 15 29 15 55 0 26 6 48 15
55 9 8 15 30 15 60 0 30 6 52 15 60 8 7 15 27 15 45 0 18 7 38 15 45 9 7 15
29 15 55 0 26 6 48 15 55 9 8 15 30 15 60 0 30 6 52 15 60 10 8 15 30 15 61 0
26 5 51 10 54 6 3 10 26 10 49 0 27 6 48 15 56 9 8 15 30 15 60 0 30 6 52 15
60 9 7 15 29 15 55 0 26 6 48 15 55 9 8 15 30 15 60 0 30 6 52 15 60 9 8 15
30 15 60 0 30 6 52 15 60 8 7 15 25 15 40 0 15 7 33 15 40 9 7 15 29 15 54 0
59 -48 106 -107 106 -24 0 -46 6 -53 15 -8 9 -30 15 -60 15 -30 0 -52 6 -60
15 -8 9 -30 15 -60 15 -30 0 -52 6 -60 15 -8 9 -29 15 -56 15 -23 0 -46 5 -49
10 -3 6 -28 10 -54 10 -31 0 -53 5 -61 15 -7 9 -29 15 -55 15 -26 0 -48 6 -55
15 -8 9 -30 15 -60 15 -30 0 -52 6 -60 15 -7 8 -27 15 -45 15 -18 0 -38 7 -45
15 -7 9 -29 15 -55 15 -26 0 -48 6 -55 15 -8 9 -30 15 -60 15 -30 0 -52 6 -60
15 -8 9 -30 15 -60 15 -30 0 -52 6 -60 15 -8 9 -29 15 -56 15 -23 0 -46 5 -49
10 -3 6 -28 10 -54 10 -31 0 -53 5 -61 15 -8 9 -30 15 -60 15 -30 0 -52 6 -60
15 -7 9 -29 15 -55 15 -26 0 -48 6 -55 15 -8 9 -30 15 -60 15 -30 0 -52 6 -60
15 -7 8 -27 15 -45 15 -18 0 -38 7 -45 15 -7 9 -29 15 -55 15 -26 0 -48 6 -55
15 -8 9 -30 15 -60 15 -30 0 -52 6 -60 15 -8 9 -29 15 -56 15 -23 0 -46 5 -49
10 -3 6 -28 10 -54 10 -31 0 -53 5 -61 15 -8 9 -30 15 -60 15 -30 0 -52 6 -60
15 -7 9 -29 15 -55 15 -26 0 -48 6 -55 15 -8 9 -30 15 -60 15 -30 0 -52 6 -60
15 -8 9 -30 15 -60 15 -30 0 -52 6 -60 15 -7 8 -25 15 -40 15 -15 0 -33 7 -40
15 -8 9 -30 15 -60 15 -30 0 -52 6 -60 15 -8 10 -30 15 -61 15 -26 0 -51 5
-54 10 -3 6 -26 10 -49 10 -27 0 -48 6 -56 15 -8 9 -30 15 -60 15 -30 0 -52 6
-60 15 -7 9 -29 15 -55 15 -26 0 -48 6 -55 15 -8 9 -30 15 -60 15 -30 0 -52 6
-60 15 -8 9 -30 15 -60 15 -30 0 -52 6 -60 15 -7 9 -29 15 -55 15 -26 0 -48 6
-55 15 -7 8 -27 15 -45 15 -18 0 -38 7 -45 15 -8 10 -30 15 -61 15 -26 0 -51
5 -54 10 -3 6 -26 10 -49 10 -27 0 -48 6 -56 15 -8 9 -30 15 -60 15 -30 0 -52
6 -60 15 -8 9 -30 15 -60 15 -30 0 -52 6 -60 15 -7 9 -29 15 -55 15 -26 0 -48
6 -55 15 -8 9 -30 15 -60 15 -30 0 -52 6 -60 15 -7 9 -29 15 -55 15 -26 0 -48
6 -55 15 -7 8 -27 15 -45 15 -18 0 -38 7 -45 15 -8 10 -30 15 -61 15 -26 0
-51 5 -54 10 -3 6 -26 10 -49 10 -27 0 -48 6 -56 15 -8 9 -30 15 -60 15 -30 0
-52 6 -60 15 -8 9 -30 15 -60 15 -30 0 -52 6 -60 15 -7 9 -29 15 -55 15 -26 0
-48 6 -55 15 -8 9 -30 15 -60 15 -30 0 -52 6 -60 15 -8 9 -30 15 -60 15 -30 0
-52 6 -60 15 -7 9 -29 15 -55 15 -26 0 -48 6 -55 15 -7 8 -27 15 -46 15 -18 0
-36 5 -39 10 -3 6 -28 10 -54 10 -31 0 -53 5 -61 15 -7 9 -29 15 -55 15 -26 0
-48 6 -55 15 -8 9 -30 15 -60 15 -30 0 -52 6 -60 15 -7 9 -29 15 -55 15 -26 0
-48 6 -55 15 -8 9 -30 15 -60 15 -30 0 -52 6 -60 15 -8 9 -30 15 -60 15 -30 0
-52 6 -60 15 -7 9 -29 15 -55 15 -26 0 -48 6 -55 15 -8 10 -30 15 -61 15 -26
0 -51 5 -54 10 -3 6 -21 10 -39 10 -19 0 -39 7 -46 15 -15 19 -130 21 -148 3z
m2188 -3593 c8 -9 30 -15 60 -15 30 0 52 -6 60 -15 7 -9 29 -15 55 -15 26 0
48 -6 55 -15 8 -9 30 -15 60 -15 30 0 52 -6 60 -15 8 -10 30 -15 61 -15 26 0
51 -4 54 -10 3 -5 26 -10 49 -10 27 0 48 -6 56 -15 8 -9 30 -15 60 -15 30 0
52 -6 60 -15 8 -9 30 -15 60 -15 30 0 52 -6 60 -15 7 -9 29 -15 55 -15 26 0
48 -6 55 -15 7 -8 27 -15 45 -15 18 0 38 -7 45 -15 8 -9 30 -15 60 -15 30 0
52 -6 60 -15 7 -9 29 -15 51 -15 42 0 52 -17 24 -40 -10 -8 -15 -30 -15 -61 0
-26 -4 -51 -10 -54 -5 -3 -10 -28 -10 -54 0 -31 -5 -53 -15 -61 -9 -7 -15 -29
-15 -55 0 -26 -6 -48 -15 -55 -9 -8 -15 -30 -15 -60 0 -30 -6 -52 -15 -60 -9
-8 -15 -30 -15 -60 0 -30 -6 -52 -15 -60 -9 -7 -15 -29 -15 -55 0 -26 -6 -48
-15 -55 -9 -8 -15 -30 -15 -60 0 -30 -6 -52 -15 -60 -9 -7 -15 -29 -15 -55 0
-26 -6 -48 -15 -55 -8 -7 -15 -27 -15 -46 0 -18 -4 -36 -10 -39 -6 -3 -10 -28
-10 -54 0 -31 -5 -53 -15 -61 -9 -8 -15 -30 -15 -56 l0 -44 -49 0 c-31 0 -53
5 -61 15 -7 9 -29 15 -55 15 -26 0 -48 6 -55 15 -8 10 -30 15 -61 15 -26 0
-51 5 -54 10 -3 6 -28 10 -54 10 -31 0 -53 5 -61 15 -7 9 -29 15 -55 15 -26 0
-48 6 -55 15 -8 9 -30 15 -60 15 -30 0 -52 6 -60 15 -7 9 -29 15 -55 15 -26 0
-48 6 -55 15 -7 8 -27 15 -45 15 -18 0 -38 7 -45 15 -8 9 -30 15 -60 15 -30 0
-52 6 -60 15 -7 9 -29 15 -55 15 -26 0 -48 6 -55 15 -8 10 -30 15 -61 15 -26
0 -51 5 -54 10 -3 6 -15 10 -26 10 -16 0 -19 7 -19 44 0 26 6 48 15 56 9 8 15
30 15 60 0 30 6 52 15 60 9 8 15 30 15 60 0 30 6 52 15 60 9 7 15 29 15 55 0
26 6 48 15 55 9 8 15 30 15 60 0 30 6 52 15 60 10 8 15 30 15 61 0 26 5 51 10
54 6 3 10 26 10 49 0 27 6 48 15 56 9 8 15 30 15 60 0 30 6 52 15 60 8 7 15
27 15 45 0 18 7 38 15 45 9 7 15 29 15 55 0 26 6 48 15 55 9 8 15 30 15 60 0
30 6 52 15 60 8 7 15 19 15 26 0 19 24 18 40 -1z"/>
</g>
</svg>
