<?xml version="1.0" standalone="no"?>
<!DOCTYPE svg PUBLIC "-//W3C//DTD SVG 20010904//EN"
 "http://www.w3.org/TR/2001/REC-SVG-20010904/DTD/svg10.dtd">
<svg version="1.0" xmlns="http://www.w3.org/2000/svg"
 width="980.000000pt" height="984.000000pt" viewBox="0 0 980.000000 984.000000"
 preserveAspectRatio="xMidYMid meet">
<metadata>
Created by potrace 1.16, written by Peter Selinger 2001-2019
</metadata>
<g transform="translate(0.000000,984.000000) scale(0.100000,-0.100000)"
fill="#000000" stroke="none">
<path d="M2185 9829 c-960 -4 -1670 -11 -1728 -17 -134 -14 -206 -48 -303
-146 -56 -55 -83 -93 -111 -152 -38 -78 -38 -80 -37 -199 2 -208 33 -423 565
-3880 313 -2037 506 -3262 533 -3396 29 -134 61 -178 205 -274 169 -112 440
-253 1731 -898 1661 -831 1723 -860 1860 -860 138 0 182 20 1740 799 1420 710
1860 934 1910 973 70 56 99 132 159 426 79 383 147 811 602 3770 449 2924 481
3149 483 3346 l1 115 -42 86 c-79 159 -227 268 -390 289 -206 26 -3515 34
-7178 18z m5425 -1639 c0 -16 -259 -1045 -270 -1075 l-10 -25 -1737 -1 c-1606
0 -2133 -6 -2149 -21 -8 -9 8 -79 138 -600 l112 -448 1479 0 1479 0 110 -57
c169 -86 255 -182 307 -342 47 -143 37 -194 -234 -1281 -200 -801 -266 -1052
-318 -1205 -74 -218 -117 -276 -268 -360 l-97 -55 -1148 0 c-637 0 -1200 5
-1264 10 -100 8 -124 14 -185 44 -165 82 -219 165 -309 481 -39 135 -286 1093
-286 1109 0 3 258 6 573 6 l573 0 63 -252 c35 -139 65 -261 68 -271 4 -16 42
-17 666 -15 l662 3 129 528 c71 290 126 530 122 535 -4 4 -679 9 -1499 12
l-1492 5 -18 65 c-34 123 -285 1126 -382 1525 -205 846 -265 1118 -265 1192 1
117 71 255 181 357 86 80 133 104 225 117 155 23 5044 40 5044 19z"/>
</g>
</svg>
