<?xml version="1.0" standalone="no"?>
<!DOCTYPE svg PUBLIC "-//W3C//DTD SVG 20010904//EN"
 "http://www.w3.org/TR/2001/REC-SVG-20010904/DTD/svg10.dtd">
<svg version="1.0" xmlns="http://www.w3.org/2000/svg"
 width="512.000000pt" height="512.000000pt" viewBox="0 0 512.000000 512.000000"
 preserveAspectRatio="xMidYMid meet">
<metadata>
Created by potrace 1.16, written by Peter Selinger 2001-2019
</metadata>
<g transform="translate(0.000000,512.000000) scale(0.100000,-0.100000)"
fill="#000000" stroke="none">
<path d="M2070 4254 c-517 -9 -1118 -35 -1275 -55 -286 -36 -460 -184 -548
-465 -71 -227 -92 -490 -92 -1174 0 -819 32 -1092 158 -1335 65 -125 212 -234
369 -274 176 -45 502 -64 1399 -81 893 -17 2087 16 2324 65 151 31 313 141
384 260 85 142 129 317 158 630 26 287 26 1180 0 1465 -20 225 -38 330 -74
444 -88 281 -262 429 -548 465 -282 36 -1567 67 -2255 55z m649 -1308 c347
-182 631 -333 631 -337 0 -6 -1272 -669 -1284 -669 -4 0 -6 302 -6 671 0 568
2 670 14 667 8 -2 298 -151 645 -332z"/>
</g>
</svg>
