<?xml version="1.0" standalone="no"?>
<!DOCTYPE svg PUBLIC "-//W3C//DTD SVG 20010904//EN"
 "http://www.w3.org/TR/2001/REC-SVG-20010904/DTD/svg10.dtd">
<svg version="1.0" xmlns="http://www.w3.org/2000/svg"
 width="128.000000pt" height="128.000000pt" viewBox="0 0 128.000000 128.000000"
 preserveAspectRatio="xMidYMid meet">
<metadata>
Created by potrace 1.16, written by Peter Selinger 2001-2019
</metadata>
<g transform="translate(0.000000,128.000000) scale(0.100000,-0.100000)"
fill="#000000" stroke="none">
<path d="M364 1175 c-4 -9 46 -105 121 -233 70 -119 129 -218 131 -220 1 -2
24 -9 51 -16 52 -14 55 -19 39 -96 -6 -32 4 -53 119 -250 102 -175 129 -215
147 -215 20 0 29 28 125 390 56 215 103 402 103 416 0 25 -3 27 -407 133 -225
58 -412 106 -416 106 -4 0 -10 -7 -13 -15z m449 -150 c224 -59 336 -92 333
-100 -2 -7 -44 -163 -92 -348 -49 -186 -91 -337 -94 -337 -3 0 -51 79 -106
174 l-102 174 16 67 c19 76 19 76 -63 94 l-53 12 -101 173 c-56 95 -101 177
-101 181 0 4 6 5 13 3 6 -3 164 -44 350 -93z"/>
<path d="M285 1128 c-18 -51 -205 -781 -205 -800 0 -24 13 -28 410 -132 225
-59 414 -105 420 -101 5 3 10 11 10 17 0 6 -57 109 -127 230 -125 214 -129
219 -168 229 -70 18 -68 16 -59 57 15 72 10 85 -115 300 -92 157 -129 212
-143 212 -10 0 -21 -6 -23 -12z m142 -263 l102 -175 -14 -47 c-8 -27 -15 -58
-15 -70 0 -22 6 -25 102 -48 22 -6 45 -38 129 -181 55 -97 100 -177 97 -179
-2 -2 -160 37 -351 88 -228 59 -346 95 -343 102 2 7 44 163 92 348 49 186 91
337 94 337 3 0 51 -79 107 -175z"/>
</g>
</svg>
