<?xml version="1.0" standalone="no"?>
<!DOCTYPE svg PUBLIC "-//W3C//DTD SVG 20010904//EN"
 "http://www.w3.org/TR/2001/REC-SVG-20010904/DTD/svg10.dtd">
<svg version="1.0" xmlns="http://www.w3.org/2000/svg"
 width="460.000000pt" height="460.000000pt" viewBox="0 0 460.000000 460.000000"
 preserveAspectRatio="xMidYMid meet">
<metadata>
Created by potrace 1.16, written by Peter Selinger 2001-2019
</metadata>
<g transform="translate(0.000000,460.000000) scale(0.100000,-0.100000)"
fill="#000000" stroke="none">
<path d="M2055 3885 c-83 -15 -196 -41 -245 -56 -129 -41 -370 -165 -433 -223
-16 -14 -32 -26 -38 -26 -27 0 -288 -269 -319 -330 -7 -14 -16 -27 -20 -30
-25 -18 -131 -214 -166 -307 -57 -153 -66 -184 -90 -323 -34 -200 -34 -380 1
-582 14 -81 36 -178 51 -215 14 -37 33 -91 43 -119 28 -75 138 -278 161 -294
4 -3 13 -16 20 -30 31 -61 292 -330 319 -330 6 0 22 -12 38 -26 63 -58 303
-182 433 -223 169 -53 329 -74 515 -68 131 4 185 10 297 36 126 29 204 54 252
82 10 6 37 17 58 25 22 8 66 30 98 49 32 19 65 35 75 35 10 0 45 -17 79 -37
33 -21 75 -43 91 -49 17 -7 63 -26 104 -44 102 -44 268 -73 394 -67 54 2 103
9 109 15 7 7 8 51 3 136 l-7 126 -112 0 c-67 0 -135 6 -171 15 -57 15 -222 80
-237 94 -4 3 16 31 43 61 63 70 179 218 179 228 0 5 12 24 26 43 26 34 144
272 144 290 0 5 15 60 34 122 52 171 59 233 53 487 -4 217 -5 229 -36 335 -18
61 -39 132 -46 159 -13 45 -29 82 -92 211 -110 224 -360 495 -571 617 -274
159 -527 229 -822 227 -80 0 -176 -7 -215 -14z m441 -291 c106 -15 127 -21
260 -76 226 -94 432 -270 566 -483 57 -91 73 -122 122 -244 121 -298 119 -691
-5 -994 -26 -65 -64 -143 -84 -172 -19 -29 -35 -57 -35 -62 0 -21 -181 -233
-199 -233 -4 0 -57 48 -117 108 -189 185 -412 382 -434 382 -5 0 -21 11 -37
24 -57 48 -247 135 -369 170 -187 53 -246 59 -481 53 -183 -4 -220 -8 -308
-32 -55 -14 -123 -32 -150 -39 -28 -7 -73 -23 -99 -35 -27 -12 -50 -20 -51
-19 -8 9 -36 147 -46 223 -23 180 1 359 82 615 16 49 90 196 125 249 16 24 34
53 40 64 40 67 248 271 321 313 17 11 59 36 93 57 34 20 67 37 73 37 7 0 26 7
42 16 90 48 232 81 410 98 55 5 161 -3 281 -20z m-488 -1844 c101 -23 150 -40
203 -70 39 -22 73 -40 77 -40 3 0 32 -20 63 -45 32 -25 60 -45 64 -45 4 0 23
-15 43 -34 182 -165 287 -264 341 -320 l65 -65 -65 -29 c-139 -62 -199 -82
-305 -98 -245 -37 -488 -11 -674 73 -142 64 -240 122 -294 175 -17 15 -33 28
-37 28 -15 0 -209 213 -209 230 0 5 -6 15 -14 23 -17 17 -76 108 -76 117 0 10
116 57 180 74 30 7 81 21 113 31 100 29 148 34 272 30 85 -3 159 -13 253 -35z"/>
</g>
</svg>
