<?xml version="1.0" standalone="no"?>
<!DOCTYPE svg PUBLIC "-//W3C//DTD SVG 20010904//EN"
 "http://www.w3.org/TR/2001/REC-SVG-20010904/DTD/svg10.dtd">
<svg version="1.0" xmlns="http://www.w3.org/2000/svg"
 width="600.000000pt" height="600.000000pt" viewBox="0 0 600.000000 600.000000"
 preserveAspectRatio="xMidYMid meet">
<metadata>
Created by potrace 1.16, written by Peter Selinger 2001-2019
</metadata>
<g transform="translate(0.000000,600.000000) scale(0.100000,-0.100000)"
fill="#000000" stroke="none">
<path d="M5190 5890 c-242 -38 -451 -215 -531 -450 -30 -89 -38 -267 -15 -365
47 -200 187 -369 378 -454 95 -43 161 -56 283 -54 89 0 125 5 190 26 393 127
576 564 394 937 -34 68 -59 102 -128 171 -93 93 -181 145 -296 174 -76 19
-204 26 -275 15z"/>
<path d="M2760 5219 c-556 -64 -1097 -355 -1457 -784 -293 -350 -473 -767
-523 -1210 -15 -134 -12 -417 5 -552 63 -482 273 -920 613 -1274 189 -197 380
-337 632 -463 863 -430 1921 -256 2605 429 685 684 859 1742 429 2605 -126
252 -266 443 -463 632 -354 340 -792 550 -1274 613 -128 16 -438 19 -567 4z
m1408 -684 c387 -122 574 -565 391 -926 -82 -163 -217 -278 -394 -336 -101
-33 -263 -37 -365 -9 -108 29 -215 92 -294 171 -129 129 -186 259 -194 440 -5
125 10 206 56 307 39 84 113 180 181 235 68 55 196 117 271 132 30 6 64 13 75
15 45 11 200 -6 273 -29z m-2448 -1865 l0 -660 365 0 365 0 0 -85 0 -85 -465
0 -465 0 0 745 0 745 100 0 100 0 0 -660z m2731 296 c164 -35 259 -119 312
-279 20 -58 21 -89 25 -454 l3 -393 -90 0 -91 0 0 81 0 80 -54 -58 c-90 -98
-211 -141 -364 -130 -149 10 -247 70 -304 185 -31 62 -33 74 -33 167 0 93 2
105 33 167 35 71 78 115 150 149 88 43 140 51 360 56 l212 5 0 27 c0 93 -60
179 -155 223 -44 20 -65 23 -170 22 -128 0 -201 -15 -301 -59 l-55 -24 3 86 3
86 70 24 c149 50 320 65 446 39z m-1671 -370 c0 -435 8 -491 78 -562 50 -49
80 -59 177 -58 110 0 164 23 229 95 79 88 80 94 84 517 l3 372 90 0 89 0 0
-560 0 -560 -90 0 -90 0 0 79 0 79 -67 -67 c-93 -93 -150 -115 -293 -115 -85
0 -116 4 -162 23 -72 28 -141 94 -174 165 -48 106 -54 161 -54 574 l0 382 90
0 90 0 0 -364z"/>
<path d="M4233 2385 c-131 -24 -189 -76 -200 -178 -15 -151 97 -248 268 -234
185 16 309 169 309 383 l0 44 -152 -1 c-84 0 -185 -7 -225 -14z"/>
</g>
</svg>
