<?xml version="1.0" encoding="UTF-8" standalone="no"?>
<!-- Svg Vector Icons : http://www.onlinewebfonts.com/icon -->

<svg
   version="1.1"
   x="0px"
   y="0px"
   viewBox="0 0 699.59998 980"
   enable-background="new 0 0 1000 1000"
   xml:space="preserve"
   id="svg9"
   sodipodi:docname="268ba05fd2e97bab79796488e34251bd.svg"
   width="699.59998"
   height="980"
   xmlns:inkscape="http://www.inkscape.org/namespaces/inkscape"
   xmlns:sodipodi="http://sodipodi.sourceforge.net/DTD/sodipodi-0.dtd"
   xmlns="http://www.w3.org/2000/svg"
   xmlns:svg="http://www.w3.org/2000/svg"><defs
   id="defs13" /><sodipodi:namedview
   id="namedview11"
   pagecolor="#ffffff"
   bordercolor="#666666"
   borderopacity="1.0"
   inkscape:pageshadow="2"
   inkscape:pageopacity="0.0"
   inkscape:pagecheckerboard="0" />
<metadata
   id="metadata2"> Svg Vector Icons : http://www.onlinewebfonts.com/icon </metadata>
<g
   id="g7"
   transform="translate(-150.2,-10)"><g
     id="c133de6af664cd4f011a55de6b001a2b"><path
       d="m 400.4,98.6 v 42.2 h -108 V 10 h 108 v 46.3 h -61.7 v 42.3 z m 111,-42.3 h 43.1 V 10 h -108 c 0,0 0,23.2 0,46.3 14.4,14.4 22,21.4 42.9,42.3 -12.2,0 -42.9,0 -42.9,0 v 42.2 h 108 V 98.6 Z m 153,0 h 43.1 V 10 h -108 c 0,0 0,23.2 0,46.3 14.4,14.4 22,21.4 42.9,42.3 -12.2,0 -42.9,0 -42.9,0 v 42.2 h 108 V 98.6 Z M 849.8,203 784.2,913.5 500,990 215.8,913.5 150.2,203 Z M 717.6,347.4 H 499.7 278 l 10.6,85.8 h 211.1 11.9 l -11.9,4.9 -203.4,84.7 6.7,83.9 196.7,0.6 105.4,0.3 -6.8,111.8 -98.7,27.8 v -0.1 l -0.8,0.2 -95.3,-24.1 -5.8,-69.4 h -0.3 -88.4 -0.3 l 11.6,134 179.3,53 v -0.1 l 0.3,0.1 178.5,-51.8 23.1,-266.1 h -201.8 -0.5 l 0.5,-0.2 209.2,-89.4 z"
       id="path4" /></g></g>
</svg>
