<?xml version="1.0" standalone="no"?>
<!DOCTYPE svg PUBLIC "-//W3C//DTD SVG 20010904//EN"
 "http://www.w3.org/TR/2001/REC-SVG-20010904/DTD/svg10.dtd">
<svg version="1.0" xmlns="http://www.w3.org/2000/svg"
 width="512.000000pt" height="512.000000pt" viewBox="0 0 512.000000 512.000000"
 preserveAspectRatio="xMidYMid meet">
<metadata>
Created by potrace 1.16, written by Peter Selinger 2001-2019
</metadata>
<g transform="translate(0.000000,512.000000) scale(0.100000,-0.100000)"
fill="#000000" stroke="none">
<path d="M2470 4793 c-26 -10 -1782 -993 -1836 -1028 -38 -25 -58 -47 -78 -86
l-26 -53 0 -1054 c0 -806 3 -1064 12 -1096 7 -24 30 -58 54 -81 28 -28 326
-200 960 -555 l919 -515 85 0 85 0 919 515 c636 356 932 527 961 555 23 23 46
57 53 81 16 54 18 2109 2 2166 -25 88 -35 94 -985 624 -490 273 -908 505 -930
515 -39 18 -159 25 -195 12z m231 -743 c276 -28 548 -134 761 -296 131 -100
280 -261 361 -391 l27 -42 -68 -39 c-259 -151 -584 -334 -586 -331 -2 2 -27
33 -55 69 -338 425 -1016 351 -1247 -135 -57 -119 -77 -220 -71 -354 9 -234
108 -428 284 -561 136 -103 279 -151 453 -151 236 0 450 104 585 283 27 35 52
67 56 72 5 6 621 -322 658 -350 8 -6 -110 -173 -177 -249 -210 -242 -503 -412
-832 -482 -121 -26 -459 -26 -580 0 -578 123 -1028 555 -1165 1117 -193 801
304 1612 1107 1805 172 41 319 52 489 35z"/>
</g>
</svg>
