<?xml version="1.0" encoding="UTF-8" standalone="no"?>
<!-- Svg Vector Icons : http://www.onlinewebfonts.com/icon -->

<svg
   version="1.1"
   x="0px"
   y="0px"
   viewBox="0 0 757.37231 980.00751"
   enable-background="new 0 0 1000 1000"
   xml:space="preserve"
   id="svg16"
   sodipodi:docname="e58d96743a7ea8d5cd723f81794bcf8d.svg"
   width="757.37231"
   height="980.00751"
   xmlns:inkscape="http://www.inkscape.org/namespaces/inkscape"
   xmlns:sodipodi="http://sodipodi.sourceforge.net/DTD/sodipodi-0.dtd"
   xmlns="http://www.w3.org/2000/svg"
   xmlns:svg="http://www.w3.org/2000/svg"><defs
   id="defs20" /><sodipodi:namedview
   id="namedview18"
   pagecolor="#ffffff"
   bordercolor="#666666"
   borderopacity="1.0"
   inkscape:pageshadow="2"
   inkscape:pageopacity="0.0"
   inkscape:pagecheckerboard="0" />
<metadata
   id="metadata2"> Svg Vector Icons : http://www.onlinewebfonts.com/icon </metadata>
<g
   id="g14"
   transform="translate(-121.31683,-10.002511)"><g
     transform="matrix(0.1,0,0,-0.1,0,511)"
     id="g12"><path
       d="M 3650.9,4979.1 C 2722.6,4834.9 2003.6,4339.2 1338,3385.2 c -73.1,-106.7 -130.4,-197.5 -124.4,-203.4 4,-5.9 104.7,19.8 223.2,53.3 175.8,51.4 262.7,63.2 472.1,73.1 l 256.8,9.9 -130.4,-138.3 C 1824,2954.6 1656.1,2695.9 1515.8,2379.9 l -49.4,-110.6 171.8,61.2 c 156,55.3 195.5,61.2 422.7,61.2 136.3,2 254.8,-4 262.7,-11.9 7.9,-7.9 -21.7,-67.2 -65.2,-134.3 -175.8,-262.7 -223.2,-476 -217.3,-963.9 l 5.9,-369.4 108.6,156 c 59.3,84.9 146.2,203.4 189.6,260.7 l 81,106.7 13.8,-116.5 c 17.8,-163.9 81,-379.2 158,-543.2 67.2,-144.2 177.8,-270.6 290.4,-327.9 55.3,-29.6 71.1,-57.3 130.4,-239 106.7,-329.8 270.6,-651.8 456.3,-898.7 l 61.2,-81 -152.1,-90.8 c -83,-51.4 -258.7,-132.3 -387.1,-181.7 -533.3,-201.5 -1035,-527.4 -1266.1,-821.7 -49.4,-63.2 -118.5,-175.8 -154.1,-248.9 -59.3,-124.4 -63.2,-148.1 -63.2,-343.7 0,-201.5 2,-211.3 77,-363.4 256.8,-519.5 1291.7,-1179.2 2690.2,-1714.4 183.7,-69.1 420.7,-156 527.4,-191.6 l 193.6,-63.2 270.6,92.8 c 1599.9,553 2854.1,1301.6 3136.5,1874.4 75.1,154.1 77,163.9 77,365.4 0,195.5 -4,219.2 -65.2,345.7 -73.1,156 -215.3,339.7 -359.5,462.2 -260.7,223.2 -665.6,456.3 -1037,596.5 -201.5,75.1 -375.3,162 -507.6,252.8 l -53.3,35.6 108.6,144.2 c 134.3,179.8 322,557 408.9,829.6 61.3,187.6 73.1,209.4 136.3,241 207.4,106.7 399,480 442.4,869.1 l 13.8,116.5 81,-106.7 c 43.4,-57.3 130.4,-175.8 189.6,-260.7 l 108.6,-156 5.9,359.5 c 5.9,493.8 -41.5,709.1 -221.2,979.7 -41.5,63.2 -69.1,120.5 -61.2,128.4 5.9,7.9 126.4,13.8 262.7,11.9 227.1,0 266.7,-5.9 422.7,-61.2 l 169.9,-61.2 -75,165.9 c -148.1,321.9 -294.3,537.2 -521.5,774.3 l -100.6,106.4 256.8,-9.9 c 211.3,-7.9 294.3,-19.7 472.1,-71.1 118.5,-33.6 219.2,-59.3 223.2,-53.3 15.8,15.8 -353.6,523.4 -513.5,705.1 -391.1,446.4 -920.4,811.8 -1416.2,973.7 -527.4,173.8 -1145.6,195.5 -1663.1,59.3 l -193.6,-51.4 -191.6,51.4 c -359.5,92.8 -798,116.5 -1157.5,59.3 z m 942.2,-306.2 c 108.6,-21.7 244.9,-61.2 302.2,-88.9 l 104.7,-49.4 104.7,49.4 c 286.4,134.3 900.7,179.7 1311.5,92.8 576.7,-120.5 1025.1,-369.4 1477.4,-821.7 l 237,-237 -187.6,-13.8 c -209.4,-13.8 -432.6,-79 -632.1,-181.7 l -126.4,-67.1 136.3,-69.1 c 197.5,-98.8 371.3,-235.1 515.5,-404.9 69.1,-81 126.4,-156 126.4,-165.9 0,-7.9 -43.5,-15.8 -94.8,-15.8 -146.2,0 -387.1,-69.1 -543.2,-156 -237,-132.3 -233.1,-120.5 -96.8,-205.4 67.2,-41.5 156,-114.6 201.5,-165.9 77,-88.9 211.3,-335.8 191.6,-353.5 -5.9,-5.9 -53.3,21.7 -106.7,63.2 -160,124.4 -331.8,193.6 -493.8,201.5 l -144.2,7.9 v 142.2 c 0,171.8 -57.3,410.8 -132.3,551.1 -29.6,57.3 -116.5,165.9 -193.6,242.9 -306.1,310.1 -811.8,462.2 -1536.7,462.2 -537.2,0 -912.5,-69.1 -1232.5,-227.1 -414.8,-205.4 -628.1,-523.4 -651.8,-971.8 l -11.8,-203.4 H 3003 c -146.2,0 -296.3,-55.3 -478,-177.8 -79,-53.3 -144.2,-92.8 -148.1,-88.9 -4,2 19.8,63.2 53.3,134.3 71.1,158 207.4,308.1 353.5,393.1 126.4,71.1 130.4,63.2 -108.6,195.5 -156,86.9 -397,156 -543.2,156 -51.3,0 -94.8,7.9 -94.8,15.8 0,35.6 233.1,292.3 345.6,383.2 63.2,51.3 187.6,130.4 274.5,175.8 l 158,82.9 -128.4,65.2 c -197.5,102.7 -420.7,167.9 -630.1,181.7 l -187.6,15.8 237,235 c 264.7,264.7 468.1,416.8 742.7,560.9 551.3,288.3 1147.8,375.2 1744.3,256.7 z m 894.7,-1501.1 c 361.4,-43.5 661.7,-162 845.4,-335.8 199.5,-189.6 286.4,-440.5 286.4,-831.5 v -235 l 177.8,13.8 c 203.4,15.8 312.1,-13.8 402.9,-108.6 100.7,-106.7 104.7,-298.2 7.9,-594.5 -83,-258.8 -189.6,-395 -314,-395 -77,0 -90.9,-21.7 -134.3,-193.6 -197.6,-770.4 -592.6,-1287.9 -1078.5,-1416.2 -167.9,-43.5 -1195,-43.5 -1362.9,0 -345.6,90.9 -659.7,391.1 -869.1,829.6 -79,167.9 -169.9,426.6 -217.3,612.3 -35.5,146.2 -51.4,167.9 -126.4,167.9 -124.4,0 -231.1,136.3 -314,395 -96.8,296.3 -92.8,487.9 7.9,594.5 90.9,94.8 197.5,124.4 402.9,108.6 l 177.8,-15.8 v 237 c 0,391.1 86.9,641.9 286.4,831.5 156,148.1 401,258.7 711.1,320 250.8,49.4 770.3,57.3 1110,15.8 z m -1625.5,-4213 c 73.1,-47.4 209.4,-112.6 304.2,-142.2 l 171.8,-57.3 h 661.7 661.7 l 171.8,57.3 c 94.8,29.6 231.1,94.8 304.2,142.2 l 132.3,86.9 100.8,-65.2 c 55.3,-37.5 138.3,-86.9 185.6,-112.6 45.4,-25.7 81,-53.3 79,-61.2 -9.9,-27.6 -1621.6,-1864.5 -1635.4,-1864.5 -15.8,0 -1625.5,1838.9 -1635.4,1866.5 -4,9.9 35.6,39.5 88.9,67.1 51.3,27.7 134.3,77 183.7,108.6 49.4,33.6 88.9,61.2 90.9,61.2 2,0 61.1,-39.4 134.2,-86.8 z M 4040,-2417.9 c 521.4,-596.5 954,-1084.3 959.9,-1084.3 7.9,0 438.5,485.9 958,1080.4 519.5,596.5 956,1084.4 969.8,1088.3 43.5,9.9 491.8,-217.3 693.3,-349.6 499.7,-331.8 685.4,-681.4 531.3,-997.4 C 7911.3,-3174.3 6669,-3909.1 5252.8,-4393 l -248.9,-86.9 -175.8,57.3 c -691.3,221.2 -1682.8,681.4 -2202.3,1021.1 -738.7,485.9 -957.9,827.6 -768.3,1200.9 81,160 280.5,357.5 521.4,515.5 189.6,126.4 634,355.5 685.4,353.5 15.8,0.1 456.3,-487.8 975.7,-1086.3 z"
       id="path4" /><path
       d="m 3939.3,2198.1 c -418.7,-136.3 -622.2,-602.4 -442.4,-1011.3 59.3,-132.3 219.2,-290.3 363.4,-355.5 106.7,-49.4 146.2,-57.3 300.2,-57.3 154,0 193.6,7.9 302.2,57.3 163.9,77 318,241 383.2,410.8 l 47.4,124.4 102.7,5.9 c 96.8,5.9 104.7,2 124.4,-49.4 100.7,-256.8 225.2,-402.9 418.7,-491.8 106.7,-49.4 146.2,-57.3 300.2,-57.3 162,0 191.6,5.9 310.1,65.2 264.7,130.4 414.8,367.4 414.8,655.8 2,258.8 -114.6,478 -323.9,612.3 -288.4,187.6 -677.5,150.1 -914.5,-88.9 -83,-81 -207.4,-298.3 -207.4,-359.5 0,-17.8 -37.5,-25.7 -118.5,-25.7 -112.6,0 -118.5,2 -130.4,55.3 -45.4,185.7 -205.4,377.3 -393,468.1 -94.8,47.4 -146.2,59.3 -284.4,63.2 -106.6,4 -201.4,-3.9 -252.8,-21.6 z M 4358,1921.5 c 177.8,-81 266.6,-225.2 266.6,-430.6 0,-483.9 -661.7,-641.9 -877,-209.4 -201.4,403 205.5,829.7 610.4,640 z m 1643.4,17.8 c 189.6,-79 302.2,-242.9 302.2,-440.5 0,-485.9 -641.9,-651.8 -875,-225.2 -63.2,116.5 -75.1,286.4 -27.7,401 96.8,231.1 381.2,355.6 600.5,264.7 z"
       id="path6" /><path
       d="m 4446.9,331.6 c -140.2,-19.8 -209.4,-57.3 -314,-169.9 -81,-88.9 -183.7,-276.5 -211.3,-389.1 l -11.9,-55.3 h 114.6 c 65.2,0 310.1,13.8 545.1,33.6 404.9,29.6 456.3,29.6 859.2,0 237,-19.8 481.9,-33.6 547.1,-33.6 h 114.6 l -11.9,55.3 c -25.7,102.7 -148.1,329.9 -223.2,406.9 -144.2,148.1 -183.7,158 -776.2,162 -288.4,1.9 -572.8,-2 -632.1,-9.9 z"
       id="path8" /><path
       d="m 4318.5,-1376.9 c -92.8,-39.5 -108.6,-100.7 -108.6,-395 0,-298.3 17.8,-343.7 150.1,-387.1 88.9,-29.6 124.4,-19.7 408.8,102.7 l 231.1,100.7 242.9,-106.7 c 300.2,-132.3 401,-140.2 491.8,-41.5 55.3,63.2 55.3,65.2 55.3,331.8 0,302.2 -19.7,365.4 -120.5,400.9 -104.7,35.6 -152.1,25.7 -416.7,-86.9 L 5000,-1566.6 4747.2,-1458 c -262.8,112.7 -327.9,124.5 -428.7,81.1 z"
       id="path10" /></g></g>
</svg>
