<?xml version="1.0" encoding="utf-8"?>
<!-- Svg Vector Icons : http://www.onlinewebfonts.com/icon -->
<!DOCTYPE svg PUBLIC "-//W3C//DTD SVG 1.1//EN" "http://www.w3.org/Graphics/SVG/1.1/DTD/svg11.dtd">
<svg version="1.1" xmlns="http://www.w3.org/2000/svg" xmlns:xlink="http://www.w3.org/1999/xlink" x="0px" y="0px" viewBox="0 0 1000 1000" enable-background="new 0 0 1000 1000" xml:space="preserve">
<metadata> Svg Vector Icons : http://www.onlinewebfonts.com/icon </metadata>
<g><g transform="translate(0.000000,511.000000) scale(0.100000,-0.100000)"><path d="M3650.9,4979.1c-928.3-144.2-1647.3-639.9-2312.9-1593.9c-73.1-106.7-130.4-197.5-124.4-203.4c4-5.9,104.7,19.8,223.2,53.3c175.8,51.4,262.7,63.2,472.1,73.1l256.8,9.9l-130.4-138.3c-211.3-225.2-379.2-483.9-519.5-799.9l-49.4-110.6l171.8,61.2c156,55.3,195.5,61.2,422.7,61.2c136.3,2,254.8-4,262.7-11.9c7.9-7.9-21.7-67.2-65.2-134.3c-175.8-262.7-223.2-476-217.3-963.9l5.9-369.4l108.6,156c59.3,84.9,146.2,203.4,189.6,260.7l81,106.7l13.8-116.5c17.8-163.9,81-379.2,158-543.2c67.2-144.2,177.8-270.6,290.4-327.9c55.3-29.6,71.1-57.3,130.4-239c106.7-329.8,270.6-651.8,456.3-898.7l61.2-81l-152.1-90.8c-83-51.4-258.7-132.3-387.1-181.7c-533.3-201.5-1035-527.4-1266.1-821.7c-49.4-63.2-118.5-175.8-154.1-248.9c-59.3-124.4-63.2-148.1-63.2-343.7c0-201.5,2-211.3,77-363.4c256.8-519.5,1291.7-1179.2,2690.2-1714.4c183.7-69.1,420.7-156,527.4-191.6l193.6-63.2l270.6,92.8c1599.9,553,2854.1,1301.6,3136.5,1874.4c75.1,154.1,77,163.9,77,365.4c0,195.5-4,219.2-65.2,345.7c-73.1,156-215.3,339.7-359.5,462.2c-260.7,223.2-665.6,456.3-1037,596.5c-201.5,75.1-375.3,162-507.6,252.8l-53.3,35.6l108.6,144.2c134.3,179.8,322,557,408.9,829.6c61.3,187.6,73.1,209.4,136.3,241c207.4,106.7,399,480,442.4,869.1l13.8,116.5l81-106.7c43.4-57.3,130.4-175.8,189.6-260.7l108.6-156l5.9,359.5c5.9,493.8-41.5,709.1-221.2,979.7c-41.5,63.2-69.1,120.5-61.2,128.4c5.9,7.9,126.4,13.8,262.7,11.9c227.1,0,266.7-5.9,422.7-61.2l169.9-61.2l-75,165.9c-148.1,321.9-294.3,537.2-521.5,774.3L7834.3,3316l256.8-9.9c211.3-7.9,294.3-19.7,472.1-71.1c118.5-33.6,219.2-59.3,223.2-53.3c15.8,15.8-353.6,523.4-513.5,705.1c-391.1,446.4-920.4,811.8-1416.2,973.7c-527.4,173.8-1145.6,195.5-1663.1,59.3l-193.6-51.4l-191.6,51.4C4448.9,5012.6,4010.4,5036.3,3650.9,4979.1z M4593.1,4672.9c108.6-21.7,244.9-61.2,302.2-88.9l104.7-49.4l104.7,49.4c286.4,134.3,900.7,179.7,1311.5,92.8c576.7-120.5,1025.1-369.4,1477.4-821.7l237-237l-187.6-13.8c-209.4-13.8-432.6-79-632.1-181.7l-126.4-67.1l136.3-69.1c197.5-98.8,371.3-235.1,515.5-404.9c69.1-81,126.4-156,126.4-165.9c0-7.9-43.5-15.8-94.8-15.8c-146.2,0-387.1-69.1-543.2-156c-237-132.3-233.1-120.5-96.8-205.4c67.2-41.5,156-114.6,201.5-165.9c77-88.9,211.3-335.8,191.6-353.5c-5.9-5.9-53.3,21.7-106.7,63.2c-160,124.4-331.8,193.6-493.8,201.5l-144.2,7.9v142.2c0,171.8-57.3,410.8-132.3,551.1c-29.6,57.3-116.5,165.9-193.6,242.9c-306.1,310.1-811.8,462.2-1536.7,462.2c-537.2,0-912.5-69.1-1232.5-227.1c-414.8-205.4-628.1-523.4-651.8-971.8l-11.8-203.4h-114.6c-146.2,0-296.3-55.3-478-177.8c-79-53.3-144.2-92.8-148.1-88.9c-4,2,19.8,63.2,53.3,134.3c71.1,158,207.4,308.1,353.5,393.1c126.4,71.1,130.4,63.2-108.6,195.5c-156,86.9-397,156-543.2,156c-51.3,0-94.8,7.9-94.8,15.8c0,35.6,233.1,292.3,345.6,383.2c63.2,51.3,187.6,130.4,274.5,175.8l158,82.9l-128.4,65.2c-197.5,102.7-420.7,167.9-630.1,181.7l-187.6,15.8l237,235c264.7,264.7,468.1,416.8,742.7,560.9C3400.1,4704.5,3996.6,4791.4,4593.1,4672.9z M5487.8,3171.8c361.4-43.5,661.7-162,845.4-335.8c199.5-189.6,286.4-440.5,286.4-831.5v-235l177.8,13.8c203.4,15.8,312.1-13.8,402.9-108.6c100.7-106.7,104.7-298.2,7.9-594.5c-83-258.8-189.6-395-314-395c-77,0-90.9-21.7-134.3-193.6C6562.3-278.8,6167.3-796.3,5681.4-924.6c-167.9-43.5-1195-43.5-1362.9,0c-345.6,90.9-659.7,391.1-869.1,829.6c-79,167.9-169.9,426.6-217.3,612.3c-35.5,146.2-51.4,167.9-126.4,167.9c-124.4,0-231.1,136.3-314,395c-96.8,296.3-92.8,487.9,7.9,594.5c90.9,94.8,197.5,124.4,402.9,108.6l177.8-15.8v237c0,391.1,86.9,641.9,286.4,831.5c156,148.1,401,258.7,711.1,320C4628.6,3205.4,5148.1,3213.3,5487.8,3171.8z M3862.3-1041.2c73.1-47.4,209.4-112.6,304.2-142.2l171.8-57.3H5000h661.7l171.8,57.3c94.8,29.6,231.1,94.8,304.2,142.2l132.3,86.9l100.8-65.2c55.3-37.5,138.3-86.9,185.6-112.6c45.4-25.7,81-53.3,79-61.2c-9.9-27.6-1621.6-1864.5-1635.4-1864.5c-15.8,0-1625.5,1838.9-1635.4,1866.5c-4,9.9,35.6,39.5,88.9,67.1c51.3,27.7,134.3,77,183.7,108.6c49.4,33.6,88.9,61.2,90.9,61.2S3789.2-993.8,3862.3-1041.2z M4040-2417.9c521.4-596.5,954-1084.3,959.9-1084.3c7.9,0,438.5,485.9,958,1080.4c519.5,596.5,956,1084.4,969.8,1088.3c43.5,9.9,491.8-217.3,693.3-349.6c499.7-331.8,685.4-681.4,531.3-997.4C7911.3-3174.3,6669-3909.1,5252.8-4393l-248.9-86.9l-175.8,57.3c-691.3,221.2-1682.8,681.4-2202.3,1021.1c-738.7,485.9-957.9,827.6-768.3,1200.9c81,160,280.5,357.5,521.4,515.5c189.6,126.4,634,355.5,685.4,353.5C3080.1-1331.5,3520.6-1819.4,4040-2417.9z"/><path d="M3939.3,2198.1c-418.7-136.3-622.2-602.4-442.4-1011.3c59.3-132.3,219.2-290.3,363.4-355.5c106.7-49.4,146.2-57.3,300.2-57.3s193.6,7.9,302.2,57.3c163.9,77,318,241,383.2,410.8l47.4,124.4l102.7,5.9c96.8,5.9,104.7,2,124.4-49.4c100.7-256.8,225.2-402.9,418.7-491.8c106.7-49.4,146.2-57.3,300.2-57.3c162,0,191.6,5.9,310.1,65.2c264.7,130.4,414.8,367.4,414.8,655.8c2,258.8-114.6,478-323.9,612.3c-288.4,187.6-677.5,150.1-914.5-88.9c-83-81-207.4-298.3-207.4-359.5c0-17.8-37.5-25.7-118.5-25.7c-112.6,0-118.5,2-130.4,55.3c-45.4,185.7-205.4,377.3-393,468.1c-94.8,47.4-146.2,59.3-284.4,63.2C4085.5,2223.7,3990.7,2215.8,3939.3,2198.1z M4358,1921.5c177.8-81,266.6-225.2,266.6-430.6c0-483.9-661.7-641.9-877-209.4C3546.2,1684.5,3953.1,2111.2,4358,1921.5z M6001.4,1939.3c189.6-79,302.2-242.9,302.2-440.5c0-485.9-641.9-651.8-875-225.2c-63.2,116.5-75.1,286.4-27.7,401C5497.7,1905.7,5782.1,2030.2,6001.4,1939.3z"/><path d="M4446.9,331.6c-140.2-19.8-209.4-57.3-314-169.9c-81-88.9-183.7-276.5-211.3-389.1l-11.9-55.3h114.6c65.2,0,310.1,13.8,545.1,33.6c404.9,29.6,456.3,29.6,859.2,0c237-19.8,481.9-33.6,547.1-33.6h114.6l-11.9,55.3c-25.7,102.7-148.1,329.9-223.2,406.9c-144.2,148.1-183.7,158-776.2,162C4790.6,343.4,4506.2,339.5,4446.9,331.6z"/><path d="M4318.5-1376.9c-92.8-39.5-108.6-100.7-108.6-395c0-298.3,17.8-343.7,150.1-387.1c88.9-29.6,124.4-19.7,408.8,102.7l231.1,100.7l242.9-106.7c300.2-132.3,401-140.2,491.8-41.5c55.3,63.2,55.3,65.2,55.3,331.8c0,302.2-19.7,365.4-120.5,400.9c-104.7,35.6-152.1,25.7-416.7-86.9L5000-1566.6l-252.8,108.6C4484.4-1345.3,4419.3-1333.5,4318.5-1376.9z"/></g></g>
</svg>