<?xml version="1.0" standalone="no"?>
<!DOCTYPE svg PUBLIC "-//W3C//DTD SVG 20010904//EN"
 "http://www.w3.org/TR/2001/REC-SVG-20010904/DTD/svg10.dtd">
<svg version="1.0" xmlns="http://www.w3.org/2000/svg"
 width="800.000000pt" height="600.000000pt" viewBox="0 0 800.000000 600.000000"
 preserveAspectRatio="xMidYMid meet">
<metadata>
Created by potrace 1.16, written by Peter Selinger 2001-2019
</metadata>
<g transform="translate(0.000000,600.000000) scale(0.100000,-0.100000)"
fill="#000000" stroke="none">
<path d="M4575 5970 c11 -5 234 -60 495 -121 261 -61 479 -115 483 -119 10 -9
-28 -32 -279 -172 -90 -51 -163 -95 -162 -99 2 -4 82 -71 178 -150 258 -211
329 -273 322 -280 -4 -3 -142 -21 -307 -39 -165 -18 -310 -37 -322 -41 -23 -8
-47 -79 -256 -739 l-93 -296 68 -273 c37 -150 70 -292 73 -315 l7 -43 -59 -1
c-88 -3 -418 -21 -604 -33 -91 -5 -170 -9 -176 -7 -6 2 -46 -28 -89 -67 -61
-54 -676 -622 -894 -825 -35 -32 -43 -52 -101 -238 -34 -112 -67 -209 -73
-217 -6 -7 -252 -95 -546 -195 -294 -100 -550 -188 -567 -196 -18 -7 -33 -12
-33 -11 0 11 -204 435 -220 457 -11 15 -57 131 -101 257 -44 125 -84 232 -88
236 -4 4 -50 -59 -101 -140 l-93 -148 -18 -345 c-22 -432 -24 -713 -4 -840 40
-264 141 -486 290 -636 186 -187 413 -277 770 -304 133 -10 225 -5 1910 110
974 66 1961 134 2194 150 234 17 435 30 447 30 19 0 21 6 22 53 0 28 75 1028
167 2222 145 1882 166 2188 161 2305 -25 585 -306 931 -856 1056 l-105 24
-730 -1 c-445 0 -722 -4 -710 -9z"/>
<path d="M4160 5830 c-748 -104 -1785 -849 -2415 -1735 -323 -454 -538 -967
-523 -1250 l3 -60 285 -275 c157 -151 305 -294 329 -317 50 -50 62 -51 197
-28 186 33 465 142 701 275 1070 605 2020 1747 2158 2595 65 400 -87 698 -400
780 -74 19 -248 27 -335 15z"/>
</g>
</svg>
