<?xml version="1.0" standalone="no"?>
<!DOCTYPE svg PUBLIC "-//W3C//DTD SVG 20010904//EN"
 "http://www.w3.org/TR/2001/REC-SVG-20010904/DTD/svg10.dtd">
<svg version="1.0" xmlns="http://www.w3.org/2000/svg"
 width="700.000000pt" height="787.000000pt" viewBox="0 0 700.000000 787.000000"
 preserveAspectRatio="xMidYMid meet">
<metadata>
Created by potrace 1.16, written by Peter Selinger 2001-2019
</metadata>
<g transform="translate(0.000000,787.000000) scale(0.100000,-0.100000)"
fill="#000000" stroke="none">
<path d="M6900 5907 c-8 -8 -323 -191 -700 -407 -377 -216 -687 -396 -690
-400 -6 -9 -936 -544 -1002 -577 -27 -13 -297 -167 -601 -342 -303 -174 -744
-427 -979 -562 -235 -134 -427 -249 -428 -255 0 -6 22 -42 49 -80 418 -596
1253 -670 1767 -157 45 45 106 119 136 163 29 44 56 80 59 80 8 0 990 -567
1001 -578 19 -19 -162 -275 -293 -418 -385 -417 -868 -667 -1439 -745 -141
-19 -459 -17 -605 5 -582 87 -1103 377 -1468 819 -67 81 -171 227 -222 312 -9
14 -102 -36 -711 -387 l-702 -403 17 -29 c27 -48 132 -156 191 -196 30 -20
433 -254 895 -520 1002 -576 1646 -947 1810 -1044 270 -158 370 -192 539 -182
134 8 129 7 144 19 6 5 12 6 12 2 0 -4 7 -2 15 5 8 7 15 9 15 5 0 -4 7 -2 15
5 8 7 15 9 15 6 0 -4 10 -1 23 6 12 7 25 11 30 10 4 -1 7 3 7 9 0 5 5 7 10 4
5 -3 10 -2 10 4 0 6 11 13 25 17 14 3 25 10 25 16 0 5 5 6 10 3 6 -3 10 -2 10
3 0 6 11 13 25 16 14 4 25 11 25 17 0 6 5 7 10 4 6 -3 10 -2 10 3 0 6 11 13
25 16 14 4 25 11 25 17 0 6 5 7 10 4 6 -3 10 -1 10 4 0 6 7 11 15 11 8 0 15 5
15 11 0 5 5 7 10 4 6 -3 10 -2 10 4 0 6 11 13 25 17 14 3 25 10 25 16 0 5 5 6
10 3 6 -3 10 -2 10 3 0 6 11 13 25 16 14 4 25 11 25 17 0 6 5 7 10 4 6 -3 10
-2 10 3 0 6 11 13 25 16 14 4 25 11 25 17 0 6 5 7 10 4 6 -3 10 -1 10 4 0 6 7
11 15 11 8 0 15 5 15 11 0 5 5 7 10 4 6 -3 10 -1 10 5 0 6 5 8 10 5 6 -3 10
-1 10 4 0 6 7 11 15 11 8 0 15 5 15 11 0 5 5 7 10 4 6 -3 10 -2 10 3 0 6 11
13 25 16 14 4 25 11 25 17 0 6 5 7 10 4 6 -3 10 -2 10 3 0 6 11 13 25 16 14 4
25 11 25 17 0 6 5 7 10 4 6 -3 10 -2 10 3 0 6 11 13 25 16 14 4 25 11 25 17 0
6 4 7 10 4 6 -3 10 -1 10 4 0 6 7 11 15 11 8 0 15 5 15 11 0 5 5 7 10 4 6 -3
10 -1 10 5 0 6 4 9 8 6 5 -3 18 3 29 14 12 10 24 16 27 13 3 -4 6 -2 6 4 0 6
11 14 25 17 14 4 25 11 25 17 0 6 5 7 10 4 6 -3 10 -2 10 3 0 6 11 13 25 16
14 4 25 11 25 17 0 6 5 7 10 4 6 -3 10 -2 10 3 0 6 11 13 25 16 14 4 25 11 25
17 0 6 5 7 10 4 6 -3 10 -1 10 4 0 6 7 11 15 11 8 0 15 5 15 11 0 5 5 7 10 4
6 -3 10 -1 10 5 0 6 4 9 8 6 5 -3 18 3 29 14 12 10 24 16 27 13 3 -4 6 -1 6 6
0 7 4 10 8 7 5 -3 18 3 29 14 12 10 24 16 27 13 3 -4 6 -2 6 4 0 6 11 14 25
17 14 4 25 11 25 17 0 6 5 7 10 4 6 -3 10 -2 10 3 0 6 11 13 25 16 14 4 25 11
25 17 0 6 5 7 10 4 6 -3 10 -2 10 3 0 6 11 13 25 16 14 4 25 11 25 17 0 6 5 7
10 4 6 -3 10 -1 10 4 0 6 7 11 15 11 8 0 15 5 15 11 0 5 5 7 10 4 6 -3 10 -1
10 5 0 6 5 8 10 5 6 -3 10 -1 10 4 0 6 7 11 15 11 8 0 15 5 15 11 0 5 5 7 10
4 6 -3 10 -2 10 3 0 6 11 13 25 16 14 4 25 11 25 17 0 6 5 7 10 4 6 -3 10 -2
10 3 0 6 11 13 25 16 14 4 25 11 25 17 0 6 5 7 10 4 6 -3 10 -2 10 3 0 6 11
13 25 16 14 4 25 11 25 17 0 6 5 7 10 4 6 -3 10 -2 10 3 0 6 11 13 25 16 14 4
25 11 25 17 0 6 5 7 10 4 6 -3 10 -1 10 4 0 6 7 11 15 11 8 0 15 5 15 11 0 5
5 7 10 4 6 -3 10 -1 10 5 0 6 5 8 10 5 6 -3 10 -1 10 4 0 6 7 11 15 11 8 0 15
5 15 11 0 5 5 7 10 4 6 -3 10 -1 10 5 0 6 4 9 8 6 5 -3 18 3 29 14 12 10 24
16 27 13 3 -4 6 -2 6 4 0 6 11 14 25 17 14 4 25 11 25 17 0 6 5 7 10 4 6 -3
10 -2 10 3 0 6 11 13 25 16 14 4 25 11 25 17 0 6 5 7 10 4 6 -3 10 -2 10 3 0
6 11 13 25 16 14 4 25 11 25 17 0 6 5 7 10 4 6 -3 10 -1 10 4 0 6 7 11 15 11
8 0 15 5 15 11 0 5 5 7 10 4 6 -3 10 -1 10 5 0 6 5 8 10 5 6 -3 10 -1 10 4 0
6 7 11 15 11 8 0 15 5 15 11 0 5 5 7 10 4 6 -3 10 -1 10 5 0 6 4 9 8 6 5 -3
18 3 29 14 12 10 24 16 27 13 3 -4 6 -2 6 4 0 6 11 14 25 17 14 4 25 11 25 17
0 6 5 7 10 4 6 -3 10 -2 10 3 0 6 11 13 25 16 14 4 25 11 25 17 0 6 5 7 10 4
6 -3 10 -2 10 3 0 6 11 13 25 16 14 4 25 11 25 17 0 6 5 7 10 4 6 -3 10 -1 10
4 0 6 7 11 15 11 8 0 15 5 15 11 0 5 5 7 10 4 6 -3 10 -1 10 5 0 6 4 9 8 6 5
-3 18 3 29 14 12 10 24 16 27 13 3 -4 6 -1 6 5 0 7 7 12 15 12 8 0 15 5 15 11
0 5 5 7 10 4 6 -3 13 1 16 9 3 9 10 16 15 16 11 0 129 119 129 130 0 4 7 11
16 14 8 3 12 10 9 16 -3 5 -1 10 4 10 6 0 11 7 11 15 0 8 4 15 9 15 13 0 57
116 71 185 8 44 10 530 8 1820 l-3 1760 -21 56 c-12 30 -30 72 -41 92 -16 32
-21 35 -33 24z m-1320 -1697 l0 -130 130 0 130 0 0 -140 0 -140 -130 0 -130 0
0 -130 0 -130 -140 0 -140 0 0 130 0 130 -130 0 -130 0 0 140 0 140 130 0 130
0 0 130 0 130 140 0 140 0 0 -130z m970 0 l0 -129 133 -3 132 -3 0 -135 0
-135 -132 -3 -133 -3 0 -129 0 -130 -135 0 -135 0 0 130 0 130 -135 0 -135 0
0 140 0 140 135 0 135 0 0 130 0 130 135 0 135 0 0 -130z"/>
</g>
</svg>
