<?xml version="1.0" standalone="no"?>
<!DOCTYPE svg PUBLIC "-//W3C//DTD SVG 20010904//EN"
 "http://www.w3.org/TR/2001/REC-SVG-20010904/DTD/svg10.dtd">
<svg version="1.0" xmlns="http://www.w3.org/2000/svg"
 width="1200.000000pt" height="1200.000000pt" viewBox="0 0 1200.000000 1200.000000"
 preserveAspectRatio="xMidYMid meet">
<metadata>
Created by potrace 1.16, written by Peter Selinger 2001-2019
</metadata>
<g transform="translate(0.000000,1200.000000) scale(0.100000,-0.100000)"
fill="#000000" stroke="none">
<path d="M5605 9644 c-337 -37 -667 -118 -980 -241 -167 -66 -450 -208 -594
-298 -108 -68 -117 -72 -105 -53 4 7 3 8 -5 4 -6 -4 -9 -11 -6 -15 2 -5 -14
-21 -38 -36 -23 -16 -77 -55 -119 -87 -77 -58 -95 -68 -82 -45 4 6 -2 3 -14
-7 -26 -23 -29 -34 -4 -15 14 11 13 10 -2 -9 -20 -23 -43 -31 -30 -9 5 6 -16
-8 -46 -33 -54 -44 -421 -405 -387 -380 9 7 17 9 17 6 0 -7 -119 -148 -148
-176 -14 -14 -15 -13 -2 5 8 11 39 49 68 85 48 57 49 59 9 17 -56 -58 -117
-134 -99 -124 6 5 12 4 12 -2 0 -5 -5 -13 -10 -16 -6 -4 -45 -55 -86 -113 -42
-59 -79 -107 -84 -107 -5 0 -12 -4 -17 -9 -5 -5 -3 -6 5 -2 19 11 16 4 -50
-100 -34 -55 -82 -136 -106 -182 -24 -45 -48 -80 -53 -77 -5 4 -6 -2 -2 -11 4
-12 3 -15 -5 -10 -8 5 -10 1 -5 -10 4 -12 3 -15 -5 -10 -8 5 -10 1 -5 -10 4
-12 3 -15 -5 -10 -8 4 -10 2 -6 -7 3 -8 -6 -38 -20 -66 -155 -305 -286 -780
-331 -1198 -20 -177 -22 -544 -6 -723 42 -453 162 -885 362 -1299 38 -79 66
-148 62 -154 -3 -6 -1 -7 5 -3 7 4 20 -10 33 -36 12 -24 44 -78 70 -121 52
-84 56 -92 37 -81 -8 4 -10 3 -5 -2 5 -5 14 -9 20 -9 5 0 12 -6 15 -14 3 -9 0
-11 -9 -6 -8 5 -11 4 -6 -1 5 -5 14 -9 20 -9 5 0 12 -6 15 -14 3 -9 0 -11 -9
-6 -8 5 -11 4 -6 -1 5 -5 14 -9 20 -9 5 0 12 -6 15 -14 3 -9 0 -11 -9 -6 -8 5
-11 4 -6 -1 5 -5 12 -9 17 -9 8 0 100 -120 100 -131 0 -3 -6 -2 -12 2 -9 5 -9
2 1 -9 16 -20 26 -23 15 -4 -5 8 -2 8 9 -2 20 -16 23 -36 5 -25 -7 4 -4 -2 6
-14 23 -26 34 -29 15 -4 -11 14 -10 13 9 -2 23 -20 31 -42 10 -30 -7 4 -4 -2
6 -14 23 -26 34 -29 15 -4 -11 14 -10 13 9 -2 23 -20 31 -42 10 -30 -30 18
108 -133 251 -276 137 -136 335 -307 441 -379 58 -40 21 -8 -86 76 -125 96
-285 235 -279 241 2 3 33 -22 68 -54 142 -133 363 -298 562 -419 61 -37 109
-71 107 -77 -1 -5 2 -7 7 -3 14 8 153 -63 146 -75 -3 -5 0 -7 8 -4 8 3 41 -8
73 -24 82 -41 233 -104 337 -141 129 -45 213 -42 288 13 8 6 1 -2 -15 -18 -19
-17 -23 -24 -11 -18 11 6 31 23 45 38 14 15 19 24 13 20 -18 -10 -16 0 5 32
15 24 17 60 16 404 -1 208 -4 381 -7 384 -3 4 -46 -1 -94 -11 -117 -22 -374
-31 -486 -16 -128 17 -324 81 -311 102 3 5 -1 6 -9 3 -22 -8 -161 91 -228 164
-46 51 -76 97 -121 190 -33 68 -57 130 -54 138 4 10 2 12 -6 8 -8 -5 -9 -2 -5
10 4 9 3 15 -2 12 -5 -4 -24 20 -41 51 -45 80 -94 146 -165 224 -34 38 -24 30
25 -20 46 -47 70 -68 53 -46 -33 42 -161 169 -149 148 4 -7 5 -13 3 -13 -8 0
-127 81 -127 86 0 3 6 2 13 -2 8 -5 8 -2 -2 9 -15 18 -26 23 -16 7 17 -27 -17
-5 -54 35 -80 87 -42 130 114 129 102 0 192 -27 293 -86 60 -35 252 -219 252
-240 0 -7 -10 1 -22 17 -33 47 -172 178 -209 198 -33 17 -33 17 -9 0 72 -53
147 -122 187 -174 25 -32 49 -56 54 -54 4 3 22 -19 39 -50 17 -30 35 -57 41
-60 5 -4 9 -11 9 -16 0 -6 -6 -7 -12 -3 -9 5 -9 2 1 -9 16 -20 26 -23 15 -4
-5 8 -2 8 9 -2 20 -16 23 -36 5 -24 -7 4 9 -19 36 -50 27 -31 43 -57 36 -57
-8 0 -11 -3 -7 -6 3 -3 14 -1 24 5 10 6 13 11 7 11 -7 0 -29 21 -50 47 -31 39
-23 34 42 -28 171 -161 365 -226 598 -199 106 12 244 48 306 80 33 17 38 25
45 67 16 109 103 331 125 318 5 -3 12 0 16 6 4 8 3 9 -4 5 -27 -16 -9 13 36
60 26 28 36 36 21 20 -31 -38 -57 -75 -43 -61 29 27 97 108 87 101 -7 -4 -13
-3 -13 1 0 5 -59 17 -131 27 -165 23 -382 73 -518 121 -139 48 -294 122 -286
135 3 5 0 7 -8 4 -25 -9 -199 117 -302 221 -107 106 -223 264 -210 286 5 8 4
10 -4 5 -16 -10 -90 148 -136 289 -72 218 -105 454 -105 741 0 192 10 283 46
424 31 118 106 296 123 292 7 -1 10 2 6 8 -7 11 58 129 95 170 12 14 19 19 15
13 -9 -18 0 -16 16 4 10 11 10 14 2 9 -24 -14 -13 7 32 60 l46 53 -20 59 c-39
122 -46 173 -46 372 0 213 8 269 67 458 l31 102 86 0 c96 0 186 -17 306 -56
103 -34 276 -114 269 -125 -3 -5 3 -6 12 -2 13 5 15 3 9 -7 -5 -9 -4 -11 3 -6
13 8 43 -6 169 -81 51 -31 90 -59 88 -63 -3 -5 0 -12 6 -16 8 -4 9 -3 5 4 -11
18 1 14 42 -12 l37 -25 94 24 c122 31 355 71 506 86 155 16 516 16 670 0 195
-20 447 -64 575 -101 29 -8 39 -5 89 29 96 65 246 150 364 206 209 100 371
145 521 145 l84 0 31 -97 c97 -303 102 -627 13 -860 l-19 -49 41 -45 c39 -43
36 -34 -9 22 -11 14 1 2 27 -25 46 -49 62 -75 36 -60 -9 5 -9 2 1 -9 16 -20
26 -23 15 -4 -5 8 -2 8 9 -2 20 -16 23 -36 5 -25 -8 4 -10 3 -5 -2 5 -5 14 -9
20 -9 5 0 12 -6 15 -14 3 -9 0 -11 -9 -6 -8 5 -11 4 -6 -1 5 -5 14 -9 20 -9
17 0 128 -226 160 -325 65 -204 85 -398 68 -657 -23 -344 -81 -582 -197 -816
-41 -82 -135 -227 -160 -248 -10 -8 4 15 30 51 26 35 52 74 57 85 6 13 3 11
-8 -5 -10 -14 -39 -53 -66 -88 -26 -35 -43 -60 -37 -57 5 3 10 2 10 -3 0 -5
-42 -50 -94 -100 -102 -97 -270 -216 -293 -208 -8 3 -11 1 -8 -4 9 -14 -163
-94 -305 -140 -138 -46 -300 -83 -487 -111 -76 -12 -140 -25 -141 -30 -2 -5
-9 -6 -15 -3 -7 4 6 -12 28 -35 47 -49 62 -55 19 -8 -16 18 -8 11 18 -15 58
-59 130 -202 157 -308 38 -150 42 -244 40 -837 -2 -569 -2 -571 19 -608 25
-42 27 -49 10 -39 -7 4 -4 -2 6 -14 20 -23 32 -30 21 -12 -9 15 1 12 37 -10
24 -15 51 -20 101 -20 56 0 88 8 190 46 67 26 156 62 196 81 41 18 81 31 88
28 8 -2 12 -1 9 3 -7 11 143 84 156 76 6 -4 8 -3 5 4 -4 6 25 28 70 52 43 24
109 62 146 86 71 46 83 51 71 32 -4 -7 -3 -8 5 -4 6 4 9 11 6 16 -7 11 32 33
45 25 5 -3 12 0 16 6 4 8 3 9 -4 5 -7 -4 -12 -5 -12 -2 0 2 30 26 68 52 337
238 709 617 917 931 15 24 31 40 36 38 4 -3 11 0 15 6 5 8 3 9 -6 4 -8 -5 -11
-3 -8 6 3 8 10 14 15 14 6 0 15 4 20 9 5 5 3 6 -4 2 -7 -4 -13 -5 -13 -3 0 3
29 52 64 109 35 58 76 128 90 157 15 28 31 49 36 46 6 -4 7 1 3 11 -5 13 -3
15 7 9 8 -5 11 -4 6 3 -7 11 34 103 43 97 3 -1 7 7 7 18 1 12 22 69 48 127
142 318 243 706 287 1110 17 150 17 571 1 730 -47 454 -161 858 -358 1269 -41
84 -71 158 -67 164 3 5 1 7 -5 4 -6 -4 -26 21 -47 60 -47 86 -186 298 -253
386 -53 70 -61 84 -39 70 6 -4 -3 12 -21 35 -19 23 -39 45 -45 48 -7 4 -3 -4
8 -17 42 -49 46 -63 7 -19 -39 42 -54 69 -32 55 20 -12 9 2 -22 31 l-33 29 25
-30 25 -30 -33 29 c-31 29 -44 55 -19 40 6 -5 -28 35 -76 88 -87 96 -207 208
-342 323 -98 83 -109 92 -101 78 11 -19 -9 -16 -25 4 -12 15 -12 16 1 8 13 -8
13 -7 1 8 -15 18 -26 23 -16 7 10 -17 -12 -11 -26 7 -12 15 -12 16 1 8 13 -8
13 -7 1 8 -15 18 -26 23 -16 7 12 -19 -5 -10 -67 36 -76 56 -294 191 -366 228
-32 16 -50 31 -46 38 4 6 3 8 -3 5 -6 -4 -64 18 -129 49 -351 166 -706 274
-1075 328 -59 9 -119 17 -135 18 -20 1 -14 3 16 7 25 3 -121 7 -325 8 -262 1
-408 -3 -500 -13z"/>
<path d="M3769 4220 c18 -4 41 -16 50 -26 15 -17 15 -17 -2 -5 -24 19 -96 31
-104 18 -4 -6 -1 -7 7 -2 10 6 12 4 7 -9 -4 -10 -8 -27 -8 -39 -1 -17 -3 -15
-9 8 l-9 30 2 -30 c1 -18 7 -30 16 -30 8 0 16 -6 19 -14 3 -8 0 -11 -7 -7 -17
11 -13 0 6 -15 14 -12 16 -12 9 0 -6 9 -4 12 5 9 8 -3 14 -11 14 -19 0 -9 11
-14 30 -14 20 0 30 5 30 15 0 8 7 15 15 15 17 0 26 43 13 56 -6 6 -8 -3 -7
-23 l3 -33 -8 35 c-5 19 -7 38 -5 41 8 13 -48 49 -75 48 -23 -1 -22 -2 8 -9z"/>
<path d="M3915 4030 c28 -7 28 -8 5 -9 -53 -3 -69 -39 -41 -94 23 -46 18 -48
-9 -4 -11 17 -20 26 -20 20 0 -7 14 -27 31 -45 17 -18 27 -27 23 -19 -5 11 -3
13 9 8 10 -4 23 -10 31 -13 8 -3 24 4 35 15 12 12 21 17 21 11 0 -16 -46 -41
-66 -34 -18 5 -18 5 0 -6 15 -10 23 -9 45 8 27 20 28 26 16 77 -5 24 -4 27 5
15 10 -13 11 -13 7 0 -2 8 -9 14 -14 13 -12 -2 -59 45 -55 55 1 4 -10 8 -25 9
l-28 2 30 -9z"/>
<path d="M4049 3809 c-13 -11 -19 -18 -12 -15 8 5 10 -3 6 -29 -5 -30 -1 -39
30 -70 80 -80 162 -11 90 77 -18 21 -21 28 -8 18 18 -14 19 -14 7 1 -9 12 -27
16 -62 15 -28 -1 -50 -1 -50 1 0 1 15 7 33 12 23 7 26 9 11 10 -12 1 -32 -8
-45 -20z"/>
<path d="M4328 3652 c11 -7 10 -10 -3 -16 -24 -9 -27 -8 -20 7 4 6 -3 1 -14
-12 -12 -13 -21 -31 -21 -40 1 -9 7 -3 15 14 16 36 18 31 6 -13 -6 -18 -6 -30
-2 -27 5 2 16 -4 26 -15 10 -11 14 -20 9 -20 -5 0 0 -7 10 -15 21 -16 91 -21
100 -7 2 4 -13 6 -34 4 -21 -2 -45 0 -53 5 -10 5 9 8 49 7 35 -1 67 3 71 9 3
6 1 7 -5 3 -8 -5 -10 2 -6 23 5 23 1 35 -19 55 -32 32 -23 34 12 4 l26 -22
-22 24 c-15 15 -35 25 -55 26 -18 0 -44 4 -58 8 -16 5 -20 4 -12 -2z"/>
<path d="M4882 3606 c-9 -11 -11 -16 -4 -12 10 6 11 1 6 -19 -4 -18 -1 -32 12
-48 l19 -22 -22 19 c-13 11 -24 29 -24 40 -1 18 -2 19 -6 3 -3 -11 4 -29 16
-41 18 -19 28 -21 75 -16 62 7 95 30 97 69 2 25 2 25 6 3 5 -28 -20 -59 -62
-78 -18 -8 -23 -13 -13 -14 10 0 33 14 53 31 27 24 35 39 33 58 -2 14 -6 24
-9 21 -4 -3 -16 3 -27 13 -28 25 -126 21 -150 -7z"/>
<path d="M4625 3600 c-3 -5 -3 -10 1 -10 4 0 -1 -9 -11 -20 -10 -11 -22 -17
-27 -14 -5 3 -2 -10 6 -30 18 -43 13 -48 -8 -8 -8 15 -15 22 -16 15 0 -7 12
-25 26 -40 14 -15 22 -22 18 -14 -6 11 -3 13 12 6 56 -23 127 -7 137 32 8 27
1 68 -10 66 -6 -1 -32 5 -58 13 -57 17 -62 17 -70 4z"/>
</g>
</svg>
