<svg id="svg" version="1.1" xmlns="http://www.w3.org/2000/svg" xmlns:xlink="http://www.w3.org/1999/xlink" width="400" height="400" viewBox="0, 0, 400,400"><g id="svgg"><path id="path0" d="M79.688 1.447 C 79.688 2.319,79.327 3.256,78.886 3.528 C 78.444 3.801,78.152 4.437,78.235 4.942 C 78.469 6.361,77.344 11.952,76.520 13.466 C 76.114 14.212,75.781 15.685,75.781 16.740 C 75.781 17.795,75.411 18.887,74.959 19.166 C 74.506 19.446,74.272 20.081,74.438 20.579 C 74.603 21.076,74.097 23.592,73.313 26.171 C 72.529 28.750,71.884 31.655,71.881 32.628 C 71.878 33.600,71.553 35.007,71.160 35.753 C 70.767 36.499,69.860 39.570,69.144 42.578 C 68.427 45.586,67.564 48.750,67.224 49.609 C 66.884 50.469,65.995 53.984,65.248 57.422 C 64.502 60.859,63.623 64.375,63.295 65.234 C 62.968 66.094,62.089 69.609,61.342 73.047 C 60.595 76.484,59.704 80.000,59.361 80.859 C 59.017 81.719,58.089 85.322,57.298 88.866 C 56.507 92.410,55.596 95.310,55.273 95.311 C 54.951 95.312,54.688 96.484,54.687 97.917 C 54.687 99.349,54.446 100.762,54.151 101.058 C 53.856 101.353,53.526 102.202,53.419 102.946 C 52.577 108.762,52.044 110.938,51.460 110.938 C 51.087 110.938,50.781 112.109,50.781 113.542 C 50.781 114.974,50.537 116.390,50.238 116.689 C 49.939 116.988,49.607 117.838,49.499 118.577 C 49.065 121.573,46.658 130.950,45.991 132.244 C 45.599 133.005,45.061 135.212,44.795 137.148 C 44.530 139.084,44.011 140.855,43.641 141.083 C 43.271 141.312,42.969 142.708,42.969 144.187 C 42.969 145.665,42.684 146.875,42.336 146.875 C 41.746 146.875,40.336 152.835,39.334 159.570 C 39.095 161.182,38.584 162.500,38.199 162.500 C 37.815 162.500,37.503 163.291,37.507 164.258 C 37.514 166.130,35.340 175.905,34.336 178.516 C 34.006 179.375,33.465 180.781,33.134 181.641 C 32.482 183.334,32.368 183.861,31.570 188.886 C 31.278 190.723,30.735 192.414,30.363 192.643 C 29.992 192.873,29.687 194.074,29.687 195.313 C 29.687 196.551,29.327 197.787,28.886 198.060 C 28.444 198.332,28.152 198.968,28.235 199.473 C 28.469 200.893,27.344 206.483,26.520 207.997 C 26.114 208.743,25.781 210.343,25.781 211.552 C 25.781 212.761,25.496 214.084,25.148 214.492 C 24.799 214.900,23.859 218.047,23.059 221.484 C 22.258 224.922,21.357 228.086,21.057 228.516 C 20.626 229.131,19.573 234.298,19.199 237.630 C 19.167 237.917,18.877 238.415,18.555 238.737 C 18.232 239.059,17.969 240.148,17.969 241.156 C 17.969 242.165,17.661 243.600,17.285 244.347 C 16.353 246.196,14.048 256.228,14.056 258.398 C 14.060 259.365,13.711 260.156,13.281 260.156 C 12.852 260.156,12.503 260.771,12.507 261.523 C 12.517 263.662,9.833 273.798,9.180 274.089 C 8.857 274.232,8.594 275.492,8.594 276.888 C 8.594 278.285,8.352 279.669,8.057 279.964 C 7.762 280.259,7.432 281.109,7.325 281.852 C 6.501 287.548,5.945 289.940,5.363 290.300 C 4.992 290.529,4.687 291.730,4.687 292.969 C 4.687 294.207,4.330 295.441,3.894 295.711 C 3.457 295.981,3.265 296.469,3.467 296.796 C 3.668 297.122,3.339 299.032,2.735 301.039 C 2.131 303.045,1.839 304.688,2.086 304.688 C 2.333 304.688,2.076 305.241,1.515 305.916 C 0.934 306.617,0.349 309.926,0.156 313.613 L -0.184 320.080 2.447 320.687 C 3.894 321.020,5.605 321.405,6.250 321.541 C 10.285 322.396,18.606 324.508,19.922 325.012 C 20.781 325.341,24.297 326.220,27.734 326.967 C 31.172 327.714,34.688 328.588,35.547 328.909 C 36.406 329.230,39.746 330.124,42.969 330.895 C 46.191 331.666,49.355 332.545,50.000 332.848 C 50.645 333.151,53.809 333.982,57.031 334.696 C 60.254 335.410,64.121 336.322,65.625 336.723 C 68.470 337.482,79.630 340.291,84.375 341.443 C 85.879 341.809,89.043 342.687,91.406 343.396 C 93.770 344.105,96.582 344.855,97.656 345.062 C 98.730 345.270,100.137 345.651,100.781 345.909 C 101.426 346.168,103.887 346.820,106.250 347.359 C 110.913 348.421,112.805 348.884,124.609 351.849 C 138.572 355.355,145.672 357.225,147.266 357.815 C 148.125 358.133,151.641 358.999,155.078 359.739 C 158.516 360.479,161.939 361.402,162.685 361.792 C 163.431 362.181,164.733 362.500,165.578 362.500 C 166.423 362.500,167.922 362.823,168.909 363.217 C 169.896 363.611,173.340 364.529,176.563 365.256 C 179.785 365.984,182.861 366.935,183.398 367.370 C 183.936 367.804,184.375 367.987,184.375 367.776 C 184.375 367.565,186.396 367.901,188.867 368.523 C 191.338 369.145,194.238 369.830,195.313 370.046 C 196.387 370.262,197.793 370.609,198.438 370.817 C 199.082 371.025,199.689 371.202,199.787 371.210 C 199.885 371.219,201.819 371.733,204.084 372.353 C 206.350 372.973,209.609 373.788,211.328 374.164 C 217.657 375.549,226.992 378.160,228.310 378.913 C 229.056 379.339,230.286 379.692,231.044 379.697 C 231.802 379.702,235.234 380.433,238.672 381.321 C 245.207 383.010,247.583 383.579,254.688 385.156 C 257.051 385.681,259.688 386.396,260.547 386.746 C 261.406 387.096,262.988 387.564,264.063 387.785 C 266.908 388.373,272.801 389.961,274.609 390.628 C 276.287 391.247,287.201 393.953,295.030 395.692 C 297.668 396.278,302.334 397.504,305.400 398.417 C 313.234 400.750,319.826 400.410,320.155 397.656 C 320.284 396.582,320.611 395.176,320.881 394.531 C 321.418 393.253,321.545 392.656,322.336 387.676 C 322.628 385.840,323.171 384.149,323.543 383.919 C 323.915 383.689,324.219 382.350,324.219 380.943 C 324.219 379.537,324.463 378.141,324.762 377.842 C 325.061 377.543,325.378 376.803,325.467 376.197 C 325.885 373.353,328.397 363.521,329.021 362.288 C 329.407 361.526,329.939 359.319,330.205 357.383 C 330.470 355.448,330.989 353.677,331.359 353.448 C 331.729 353.220,332.031 352.170,332.031 351.115 C 332.031 350.060,332.339 348.587,332.715 347.841 C 333.647 345.991,335.952 335.959,335.944 333.789 C 335.940 332.822,336.289 332.031,336.719 332.031 C 337.148 332.031,337.504 331.240,337.508 330.273 C 337.513 329.307,338.040 326.790,338.680 324.681 C 339.320 322.571,339.844 319.847,339.844 318.626 C 339.844 317.405,340.195 316.406,340.625 316.406 C 341.055 316.406,341.406 315.586,341.406 314.583 C 341.406 313.581,341.648 312.519,341.943 312.224 C 342.238 311.928,342.568 311.079,342.675 310.336 C 343.499 304.640,344.055 302.248,344.637 301.888 C 345.008 301.658,345.313 300.457,345.313 299.219 C 345.313 297.980,345.670 296.746,346.106 296.476 C 346.543 296.207,346.735 295.719,346.533 295.392 C 346.332 295.065,346.687 293.068,347.323 290.954 C 347.960 288.839,348.448 287.109,348.408 287.109 C 348.369 287.109,348.507 286.582,348.714 285.938 C 348.922 285.293,349.264 283.887,349.473 282.813 C 350.552 277.288,353.520 266.764,354.065 266.536 C 354.407 266.393,354.688 265.396,354.688 264.321 C 354.688 262.386,356.705 253.407,357.818 250.391 C 358.135 249.531,359.005 246.016,359.752 242.578 C 360.498 239.141,361.402 235.625,361.760 234.766 C 362.118 233.906,362.638 231.711,362.914 229.887 C 363.191 228.063,363.738 226.372,364.130 226.130 C 364.523 225.887,364.844 224.479,364.844 223.001 C 364.844 221.522,365.195 220.313,365.625 220.313 C 366.055 220.313,366.406 219.082,366.406 217.578 C 366.406 216.074,366.736 214.844,367.139 214.844 C 367.542 214.844,367.876 214.229,367.881 213.477 C 367.902 210.425,368.992 204.688,369.551 204.688 C 369.879 204.688,370.300 203.369,370.486 201.758 C 370.903 198.141,374.139 185.267,375.106 183.381 C 375.497 182.620,376.033 180.413,376.298 178.477 C 376.564 176.541,377.083 174.770,377.453 174.542 C 377.823 174.313,378.125 173.151,378.125 171.959 C 378.125 170.767,378.389 169.529,378.711 169.208 C 379.312 168.610,381.016 161.285,381.772 156.055 C 382.005 154.443,382.510 153.125,382.895 153.125 C 383.279 153.125,383.594 152.115,383.594 150.879 C 383.594 149.644,384.121 147.139,384.766 145.313 C 385.410 143.486,385.937 141.152,385.938 140.126 C 385.938 139.100,386.263 137.650,386.662 136.903 C 388.102 134.206,388.554 132.590,389.510 126.739 C 389.809 124.902,390.359 123.211,390.730 122.982 C 391.102 122.752,391.406 121.589,391.406 120.397 C 391.406 119.205,391.648 117.988,391.943 117.692 C 392.238 117.397,392.568 116.548,392.675 115.804 C 393.499 110.109,394.055 107.716,394.637 107.357 C 395.008 107.127,395.323 106.169,395.335 105.227 C 395.348 104.286,396.400 99.824,397.674 95.313 C 401.219 82.757,400.845 79.688,395.769 79.688 C 394.802 79.687,393.755 79.433,393.444 79.121 C 393.132 78.809,390.701 78.076,388.040 77.492 C 377.472 75.172,365.774 72.262,360.938 70.749 C 359.004 70.144,355.488 69.228,353.125 68.713 C 350.762 68.198,348.125 67.507,347.266 67.178 C 346.406 66.848,342.891 65.967,339.453 65.220 C 336.016 64.474,332.500 63.594,331.641 63.265 C 330.781 62.936,327.090 61.944,323.438 61.061 C 319.785 60.177,314.863 58.900,312.500 58.222 C 310.137 57.544,306.797 56.670,305.078 56.279 C 303.359 55.889,300.547 55.185,298.828 54.715 C 297.109 54.246,295.000 53.707,294.141 53.519 C 288.824 52.355,281.410 50.500,280.078 50.000 C 279.219 49.678,275.879 48.783,272.656 48.011 C 269.434 47.240,266.270 46.357,265.625 46.048 C 264.980 45.740,261.641 44.882,258.203 44.142 C 254.766 43.402,251.250 42.522,250.391 42.187 C 249.531 41.851,245.488 40.810,241.406 39.874 C 237.324 38.937,232.754 37.864,231.250 37.489 C 229.746 37.114,226.758 36.399,224.609 35.900 C 222.461 35.400,220.369 34.677,219.961 34.293 C 219.553 33.908,218.293 33.594,217.161 33.594 C 216.030 33.594,214.840 33.330,214.518 33.008 C 214.196 32.686,213.698 32.406,213.411 32.387 C 212.045 32.294,206.388 31.077,204.297 30.425 C 203.008 30.024,197.734 28.650,192.578 27.372 C 176.822 23.467,169.993 21.696,168.359 21.091 C 167.500 20.773,163.984 19.901,160.547 19.155 C 157.109 18.408,153.594 17.523,152.734 17.187 C 151.875 16.852,148.359 15.971,144.922 15.228 C 141.484 14.486,137.822 13.549,136.782 13.146 C 134.980 12.447,125.353 9.930,119.531 8.636 C 114.527 7.523,102.757 4.493,101.172 3.910 C 91.595 0.386,79.688 -0.979,79.688 1.447 M185.300 165.728 C 186.024 166.101,187.459 166.406,188.490 166.406 C 189.521 166.406,190.628 166.670,190.951 166.992 C 191.273 167.314,191.771 167.594,192.057 167.613 C 193.339 167.700,199.044 168.909,201.172 169.544 C 202.461 169.930,207.207 171.159,211.719 172.278 C 220.833 174.536,227.593 176.415,230.310 177.445 C 231.297 177.819,233.143 178.125,234.412 178.125 C 235.681 178.125,236.719 178.477,236.719 178.906 C 236.719 179.336,236.367 179.688,235.938 179.688 C 235.508 179.688,235.156 180.571,235.156 181.651 C 235.156 182.731,234.844 184.225,234.463 184.972 C 234.081 185.718,233.164 189.141,232.424 192.578 C 231.684 196.016,230.819 199.531,230.501 200.391 C 229.503 203.094,226.336 215.893,225.958 218.750 C 225.759 220.254,225.287 221.871,224.908 222.344 C 224.530 222.817,223.995 224.849,223.720 226.858 C 223.445 228.867,222.917 230.698,222.547 230.927 C 222.177 231.155,221.875 232.593,221.875 234.122 C 221.875 236.631,221.705 236.852,220.117 236.400 C 219.150 236.125,217.305 235.704,216.016 235.465 C 214.727 235.225,212.969 234.752,212.109 234.413 C 211.250 234.073,207.383 233.018,203.516 232.068 C 199.648 231.118,195.254 230.035,193.750 229.662 C 192.246 229.288,189.341 228.624,187.294 228.185 C 185.246 227.746,182.896 227.026,182.071 226.584 C 181.246 226.142,179.690 225.781,178.613 225.781 C 177.536 225.781,176.437 225.430,176.172 225.000 C 175.906 224.570,174.942 224.219,174.029 224.219 C 169.391 224.219,163.151 221.668,163.701 219.997 C 163.997 219.097,164.413 217.041,164.624 215.430 C 164.835 213.818,165.323 212.500,165.707 212.500 C 166.092 212.500,166.422 211.357,166.441 209.961 C 166.459 208.564,166.981 206.016,167.601 204.297 C 168.220 202.578,168.732 200.205,168.738 199.023 C 168.745 197.842,169.102 196.875,169.531 196.875 C 169.961 196.875,170.313 195.816,170.313 194.521 C 170.313 193.226,170.620 191.556,170.996 190.810 C 171.372 190.064,172.294 186.816,173.045 183.594 C 173.796 180.371,174.674 177.383,174.997 176.953 C 175.320 176.523,175.827 174.414,176.125 172.266 C 177.233 164.256,179.421 162.697,185.300 165.728 " stroke="none" fill="#000000" fill-rule="evenodd"></path></g></svg>