<?xml version="1.0" standalone="no"?>
<!DOCTYPE svg PUBLIC "-//W3C//DTD SVG 20010904//EN"
 "http://www.w3.org/TR/2001/REC-SVG-20010904/DTD/svg10.dtd">
<svg version="1.0" xmlns="http://www.w3.org/2000/svg"
 width="512.000000pt" height="512.000000pt" viewBox="0 0 512.000000 512.000000"
 preserveAspectRatio="xMidYMid meet">
<metadata>
Created by potrace 1.16, written by Peter Selinger 2001-2019
</metadata>
<g transform="translate(0.000000,512.000000) scale(0.100000,-0.100000)"
fill="#000000" stroke="none">
<path d="M1020 5101 c0 -11 -5 -23 -10 -26 -6 -4 -10 -12 -9 -18 3 -18 -11
-90 -22 -109 -5 -10 -9 -29 -9 -42 0 -14 -5 -28 -11 -31 -5 -4 -8 -12 -6 -18
2 -7 -5 -39 -15 -72 -10 -33 -18 -70 -18 -83 0 -12 -4 -30 -9 -40 -5 -9 -17
-48 -26 -87 -9 -38 -20 -79 -25 -90 -4 -11 -15 -56 -25 -100 -9 -44 -21 -89
-25 -100 -4 -11 -15 -56 -25 -100 -9 -44 -21 -89 -25 -100 -5 -11 -16 -57 -27
-102 -10 -46 -21 -83 -25 -83 -5 0 -8 -15 -8 -33 0 -19 -3 -37 -7 -41 -4 -3
-8 -14 -9 -24 -11 -74 -18 -102 -25 -102 -5 0 -9 -15 -9 -33 0 -19 -3 -37 -7
-41 -4 -3 -8 -14 -9 -24 -6 -38 -37 -158 -45 -175 -5 -9 -12 -38 -16 -62 -3
-25 -10 -48 -14 -51 -5 -3 -9 -21 -9 -40 0 -19 -4 -34 -8 -34 -8 0 -26 -76
-39 -162 -3 -21 -9 -38 -14 -38 -5 0 -9 -10 -9 -22 0 -24 -28 -150 -40 -183
-5 -11 -12 -29 -16 -40 -8 -22 -10 -28 -20 -93 -4 -23 -11 -45 -15 -48 -5 -3
-9 -18 -9 -34 0 -16 -5 -32 -10 -35 -6 -4 -10 -12 -9 -18 3 -18 -11 -90 -22
-109 -5 -10 -9 -30 -9 -46 0 -15 -4 -32 -8 -38 -5 -5 -17 -45 -27 -89 -10 -44
-22 -84 -25 -90 -6 -8 -19 -74 -24 -117 -1 -3 -4 -10 -9 -14 -4 -4 -7 -18 -7
-31 0 -13 -4 -31 -9 -41 -12 -23 -41 -152 -41 -179 0 -13 -4 -23 -10 -23 -5 0
-10 -8 -10 -17 0 -28 -34 -158 -42 -161 -5 -2 -8 -18 -8 -36 0 -18 -3 -36 -7
-40 -4 -3 -8 -14 -9 -24 -11 -73 -18 -103 -25 -108 -5 -3 -9 -18 -9 -34 0 -16
-5 -32 -10 -35 -6 -4 -8 -10 -6 -14 3 -4 -1 -29 -9 -54 -8 -26 -11 -47 -8 -47
3 0 0 -7 -8 -16 -7 -9 -15 -51 -17 -98 l-4 -83 33 -8 c19 -4 41 -9 49 -11 52
-11 158 -38 175 -44 11 -4 56 -16 100 -25 44 -10 89 -21 100 -25 11 -4 54 -16
95 -25 41 -10 82 -22 90 -25 8 -4 49 -15 90 -24 41 -9 91 -21 110 -26 36 -10
179 -46 240 -60 19 -5 60 -16 90 -25 30 -10 66 -19 80 -22 14 -2 32 -7 40 -11
8 -3 40 -11 70 -18 60 -14 84 -20 235 -58 179 -45 270 -68 290 -76 11 -4 56
-15 100 -25 44 -9 88 -21 97 -26 10 -5 27 -9 37 -9 11 0 30 -4 43 -9 13 -5 57
-17 98 -26 41 -10 81 -22 88 -27 6 -6 12 -8 12 -6 0 3 26 -1 58 -9 31 -8 68
-17 82 -20 14 -2 32 -7 40 -9 8 -3 16 -5 17 -5 2 -1 26 -7 55 -15 29 -8 71
-18 93 -23 81 -18 200 -51 217 -61 10 -6 26 -10 35 -10 10 0 54 -10 98 -21 84
-22 114 -29 205 -49 30 -7 64 -16 75 -20 11 -5 31 -11 45 -14 36 -7 112 -28
135 -36 21 -8 161 -43 261 -65 34 -7 94 -23 133 -35 46 -14 92 -20 129 -18 52
3 57 5 60 28 2 14 6 32 9 40 7 16 9 24 19 88 4 23 11 45 15 48 5 3 9 20 9 38
0 18 3 36 7 40 4 3 8 13 9 21 5 36 37 162 45 178 5 9 12 38 16 62 3 25 10 48
14 51 5 3 9 16 9 30 0 13 4 32 9 42 12 23 41 152 41 180 0 12 5 22 10 22 6 0
10 10 10 23 0 12 7 44 15 71 8 27 15 62 15 78 0 15 5 28 10 28 6 0 10 11 10
23 0 13 3 27 7 31 4 3 8 14 9 24 11 73 18 103 25 108 5 3 9 18 9 34 0 16 5 32
10 35 6 4 8 10 6 14 -3 4 2 30 10 57 8 27 14 49 14 49 -1 0 1 7 4 15 2 8 7 26
9 40 14 71 52 205 59 208 4 2 8 15 8 29 0 24 26 139 40 178 4 11 15 56 25 100
9 44 21 89 26 100 4 11 11 39 14 62 4 24 11 45 16 49 5 3 9 21 9 40 0 19 5 34
10 34 6 0 10 16 10 35 0 19 4 35 9 35 6 0 10 8 10 18 0 39 14 112 21 112 4 0
10 17 12 38 6 46 47 211 59 235 5 9 12 38 16 62 3 25 10 48 14 51 5 3 9 18 9
33 0 15 3 31 8 35 7 8 29 102 39 169 3 20 9 37 14 37 5 0 9 13 9 29 0 16 7 48
15 71 8 23 15 53 15 66 0 14 4 32 9 42 19 34 24 55 37 130 4 23 11 45 15 48 5
3 9 18 9 33 0 15 3 31 7 35 4 3 8 14 9 24 11 73 18 103 25 108 5 3 9 15 9 27
0 12 14 69 30 127 46 161 41 200 -24 200 -13 0 -26 3 -30 7 -4 4 -35 14 -69
21 -135 30 -285 67 -347 86 -25 8 -70 20 -100 26 -30 7 -64 16 -75 20 -11 4
-56 16 -100 25 -44 10 -89 21 -100 25 -11 4 -58 17 -105 28 -47 12 -110 28
-140 37 -30 8 -73 20 -95 25 -22 5 -58 14 -80 20 -22 6 -49 13 -60 15 -68 15
-163 39 -180 45 -11 4 -54 16 -95 25 -41 10 -82 22 -90 26 -8 4 -51 15 -95 24
-44 9 -89 21 -100 25 -11 4 -63 18 -115 30 -52 12 -111 25 -130 30 -19 5 -57
14 -85 20 -27 7 -54 16 -59 21 -6 5 -22 9 -36 9 -15 0 -30 3 -34 8 -4 4 -11 7
-14 7 -18 2 -90 17 -117 26 -16 5 -84 22 -150 39 -202 50 -289 72 -310 80 -11
4 -56 15 -100 25 -44 9 -89 21 -100 25 -11 4 -56 16 -100 25 -44 10 -91 22
-104 27 -23 9 -146 41 -221 57 -64 15 -215 53 -235 61 -53 20 -166 44 -217 48
-53 3 -58 2 -58 -17z m1352 -2102 c9 -5 27 -9 41 -9 13 0 27 -3 31 -7 4 -5 11
-8 14 -8 17 -2 90 -17 117 -25 17 -5 77 -21 135 -35 117 -29 203 -53 238 -66
13 -5 36 -9 52 -9 17 0 30 -4 30 -10 0 -5 -4 -10 -10 -10 -5 0 -10 -11 -10
-25 0 -14 -4 -33 -9 -43 -5 -9 -17 -53 -26 -97 -9 -44 -21 -89 -25 -100 -12
-35 -53 -198 -58 -235 -2 -19 -8 -40 -13 -46 -5 -6 -12 -32 -15 -58 -4 -26
-11 -49 -15 -52 -5 -3 -9 -21 -9 -41 0 -32 -2 -35 -22 -29 -13 4 -36 9 -53 12
-16 3 -39 9 -50 14 -11 4 -60 17 -110 30 -49 12 -106 26 -125 30 -19 5 -56 14
-83 19 -26 6 -56 15 -66 21 -11 5 -31 10 -45 10 -14 0 -28 5 -31 10 -3 6 -16
10 -27 10 -12 0 -48 7 -81 17 -52 14 -58 18 -52 37 4 12 9 38 12 59 3 20 9 37
14 37 5 0 9 15 9 33 1 17 7 50 15 72 8 22 15 52 15 68 0 15 5 27 10 27 6 0 10
14 10 30 0 17 4 38 9 48 5 9 16 51 26 92 10 41 21 80 25 85 4 6 11 33 14 60 4
28 13 62 19 77 11 25 16 27 47 22 19 -4 43 -11 52 -15z"/>
</g>
</svg>
