<?xml version="1.0" standalone="no"?>
<!DOCTYPE svg PUBLIC "-//W3C//DTD SVG 20010904//EN"
 "http://www.w3.org/TR/2001/REC-SVG-20010904/DTD/svg10.dtd">
<svg version="1.0" xmlns="http://www.w3.org/2000/svg"
 width="600.000000pt" height="600.000000pt" viewBox="0 0 600.000000 600.000000"
 preserveAspectRatio="xMidYMid meet">
<metadata>
Created by potrace 1.16, written by Peter Selinger 2001-2019
</metadata>
<g transform="translate(0.000000,600.000000) scale(0.100000,-0.100000)"
fill="#000000" stroke="none">
<path d="M2845 5950 c-33 -11 -103 -43 -155 -73 -227 -127 -2089 -1202 -2126
-1228 -94 -64 -171 -179 -194 -286 -7 -32 -10 -499 -8 -1393 l3 -1345 29 -68
c31 -74 102 -159 170 -206 23 -16 462 -270 976 -566 514 -296 1000 -576 1080
-622 211 -122 229 -128 380 -127 103 0 134 3 177 21 29 11 548 306 1154 654
1181 680 1187 683 1246 796 67 126 63 30 63 1492 0 1425 2 1369 -51 1478 -13
26 -53 77 -89 113 -60 60 -148 113 -1158 693 -601 346 -1121 640 -1155 654
-87 36 -253 43 -342 13z m330 -1200 c528 -61 974 -331 1278 -772 67 -98 67
-98 44 -112 -38 -23 -739 -426 -743 -426 -2 0 -18 21 -35 48 -48 69 -156 179
-219 222 -85 58 -190 108 -276 132 -106 29 -344 32 -444 4 -255 -70 -459 -241
-569 -478 -55 -117 -71 -185 -78 -328 -4 -94 -2 -144 10 -202 130 -625 828
-907 1357 -548 65 44 183 166 225 232 17 27 33 48 37 48 12 0 753 -430 756
-438 1 -5 -23 -46 -54 -93 -267 -400 -663 -666 -1138 -761 -95 -20 -143 -23
-331 -23 -191 0 -235 3 -330 23 -242 51 -471 148 -660 280 -382 268 -637 652
-732 1100 -24 112 -27 150 -27 327 -1 229 13 336 70 521 179 594 656 1049
1254 1198 196 49 424 66 605 46z m1553 -1402 l3 -68 99 0 99 0 3 68 3 67 88 3
87 3 0 -71 0 -70 70 0 70 0 0 -90 0 -90 -70 0 -70 0 0 -105 0 -105 70 0 70 0
0 -85 0 -85 -70 0 -70 0 0 -75 0 -76 -87 3 -88 3 -3 73 -3 72 -99 0 -99 0 -3
-72 -3 -73 -87 -3 -88 -3 0 76 0 75 -70 0 -70 0 0 85 0 85 70 0 70 0 0 105 0
105 -70 0 -70 0 0 90 0 90 70 0 70 0 0 70 0 71 88 -3 87 -3 3 -67z"/>
<path d="M4730 2995 l0 -105 100 0 100 0 0 105 0 105 -100 0 -100 0 0 -105z"/>
</g>
</svg>
