<?xml version="1.0" standalone="no"?>
<!DOCTYPE svg PUBLIC "-//W3C//DTD SVG 20010904//EN"
 "http://www.w3.org/TR/2001/REC-SVG-20010904/DTD/svg10.dtd">
<svg version="1.0" xmlns="http://www.w3.org/2000/svg"
 width="1200.000000pt" height="1200.000000pt" viewBox="0 0 1200.000000 1200.000000"
 preserveAspectRatio="xMidYMid meet">
<metadata>
Created by potrace 1.16, written by Peter Selinger 2001-2019
</metadata>
<g transform="translate(0.000000,1200.000000) scale(0.100000,-0.100000)"
fill="#000000" stroke="none">
<path d="M5285 11989 l50 -6 -43 -1 c-81 -3 -408 -43 -552 -68 -202 -34 -487
-106 -638 -160 -145 -53 -340 -143 -425 -197 -62 -40 -72 -44 -61 -24 4 7 3 9
-2 4 -5 -5 -9 -12 -9 -17 0 -4 -29 -29 -65 -56 -202 -148 -345 -342 -405 -551
-31 -107 -31 -78 -27 -925 l2 -698 1460 0 1460 0 0 -200 0 -201 -2162 1
c-1848 1 -2175 -1 -2243 -14 -240 -43 -448 -125 -635 -250 -86 -58 -96 -63
-85 -46 10 16 -1 11 -16 -7 -12 -15 -12 -16 1 -8 13 8 13 7 1 -8 -16 -20 -36
-23 -25 -4 34 54 -233 -210 -295 -293 -32 -44 -32 -44 10 5 72 82 201 215 244
248 22 18 -15 -22 -81 -88 -67 -66 -149 -158 -184 -205 -34 -47 -66 -85 -70
-85 -5 0 -12 -4 -17 -9 -5 -5 -2 -6 6 -1 9 5 12 3 9 -6 -3 -8 -10 -14 -16 -14
-5 0 -14 -4 -19 -9 -5 -5 -3 -6 5 -2 18 11 15 4 -27 -66 -202 -333 -347 -815
-403 -1339 -10 -92 -14 -114 -18 -84 -11 86 -11 -935 0 -1085 42 -593 166
-1125 341 -1472 17 -33 28 -67 25 -75 -3 -8 -2 -12 3 -9 5 3 31 -33 57 -81 27
-48 73 -120 102 -161 54 -76 61 -88 40 -75 -58 35 223 -258 302 -316 44 -32
44 -32 -5 10 -76 64 -237 229 -264 269 -13 20 -2 11 25 -20 254 -295 560 -477
893 -534 79 -13 186 -16 648 -16 l553 0 0 723 c0 769 6 914 46 1114 42 214
174 566 205 547 8 -4 9 -3 5 4 -8 14 42 104 54 97 5 -3 12 0 16 6 4 8 3 9 -4
5 -21 -13 -13 4 30 62 49 66 196 222 210 222 5 0 6 -5 2 -11 -3 -6 21 11 55
37 33 26 61 49 61 52 0 2 -6 0 -12 -5 -7 -5 -33 -25 -58 -43 -25 -19 -37 -25
-27 -13 26 30 142 106 239 157 140 74 308 128 508 163 85 14 271 17 1765 23
1640 6 1672 7 1777 27 401 79 686 216 913 438 45 44 103 109 129 145 27 36 52
65 56 65 5 0 12 4 17 9 5 5 3 6 -4 2 -19 -11 -16 0 14 47 70 111 134 282 175
469 l22 103 6 1530 c3 842 2 1559 -2 1595 -9 85 -50 224 -93 318 -53 114 -138
235 -249 351 l-100 106 88 -85 c48 -47 110 -116 138 -155 58 -79 80 -104 53
-60 -46 75 -142 186 -232 268 -31 29 -53 46 -49 40 13 -23 -3 -14 -76 43 -39
30 -103 74 -140 96 -69 41 -92 61 -38 33 17 -9 30 -13 30 -11 0 9 -57 36 -63
30 -3 -3 -49 17 -103 44 -290 145 -649 248 -1079 311 -352 51 -431 55 -1125
56 -360 0 -632 -2 -605 -6z m-804 -933 c97 -21 184 -69 256 -141 273 -273 156
-744 -211 -857 -126 -39 -283 -26 -399 33 -21 11 -35 24 -32 29 3 5 0 12 -6
16 -8 4 -9 3 -5 -4 14 -23 -10 -11 -56 28 -61 53 -121 143 -149 227 -32 95
-32 231 0 325 86 256 338 400 602 344z"/>
<path d="M8945 8975 c0 -786 1 -1110 2 -718 2 391 2 1035 0 1430 -1 395 -2 75
-2 -712z"/>
<path d="M5047 6163 c431 -2 1135 -2 1565 0 431 1 79 2 -782 2 -861 0 -1213
-1 -783 -2z"/>
</g>
</svg>
