<?xml version="1.0" encoding="UTF-8" standalone="no"?>
<svg
   width="319.0509"
   height="88.490372"
   viewBox="0 0 319.0509 88.490372"
   fill="none"
   version="1.1"
   id="svg27"
   sodipodi:docname="003efd59d5ed8e85569728b0943aad9a.svg"
   xmlns:inkscape="http://www.inkscape.org/namespaces/inkscape"
   xmlns:sodipodi="http://sodipodi.sourceforge.net/DTD/sodipodi-0.dtd"
   xmlns="http://www.w3.org/2000/svg"
   xmlns:svg="http://www.w3.org/2000/svg">
  <sodipodi:namedview
     id="namedview29"
     pagecolor="#ffffff"
     bordercolor="#666666"
     borderopacity="1.0"
     inkscape:pageshadow="2"
     inkscape:pageopacity="0.0"
     inkscape:pagecheckerboard="0" />
  <path
     d="m 0,6.9756176 c 0.0023194,-5.93844 4.3111523,-8.60153 9.6240223,-5.94821 L 86.349072,39.431718 c 5.3129,2.6533 9.6218,9.5742 9.6241,15.5127 v 26.5703 c -0.0023,5.9385 -4.3112,8.6016 -9.6241,5.9482 L 9.6240223,49.058618 C 4.3111523,46.405318 0.0023194,39.484418 0,33.545918 Z"
     fill="url(#paint0_linear_1446_423)"
     id="path2"
     style="fill:url(#paint0_linear_1446_423)" />
  <path
     d="m 86.349072,1.0274076 c 5.3129,-2.65332 9.6218,0.00977 9.6241,5.94821 V 33.545918 c -0.0014,3.5946 -1.5807,7.5491 -4.0054,10.6992 -1.5811,-2.0541 -3.5217,-3.7662 -5.6187,-4.8135 l -38.3625,-19.2021 z"
     fill="#f8f8fa"
     id="path4" />
  <path
     d="M 47.986572,68.260718 9.6240223,87.462918 C 4.3111523,90.116318 0.0023194,87.453218 0,81.514718 v -26.5703 c 0.0023194,-5.9385 4.3111523,-12.8594 9.6240223,-15.5127 l 38.3625497,-19.2022 z"
     fill="#f8f8fa"
     id="path6" />
  <path
     d="m 136.57757,67.495118 v -46.5455 h 29.818 v 7.0682 h -21.386 v 12.6364 h 19.341 v 7.0682 h -19.341 v 19.7727 z"
     fill="#f8f8fa"
     id="path8" />
  <path
     d="m 191.21657,52.813318 v -20.2273 h 8.227 v 34.9091 h -7.977 v -6.2045 h -0.364 c -0.788,1.9545 -2.083,3.553 -3.886,4.7954 -1.788,1.2424 -3.993,1.8636 -6.614,1.8636 -2.288,0 -4.31,-0.5075 -6.068,-1.5227 -1.742,-1.0303 -3.106,-2.5227 -4.091,-4.4773 -0.985,-1.9697 -1.477,-4.3484 -1.477,-7.1363 v -22.2273 h 8.227 v 20.9546 c 0,2.2121 0.606,3.9697 1.818,5.2727 1.212,1.303 2.803,1.9545 4.773,1.9545 1.212,0 2.386,-0.2954 3.523,-0.8863 1.136,-0.5909 2.068,-1.4697 2.795,-2.6364 0.743,-1.1818 1.114,-2.6591 1.114,-4.4318 z"
     fill="#f8f8fa"
     id="path10" />
  <path
     d="m 232.93457,41.813318 -7.5,0.8182 c -0.212,-0.7576 -0.583,-1.4697 -1.113,-2.1364 -0.516,-0.6667 -1.213,-1.2045 -2.091,-1.6136 -0.879,-0.4091 -1.955,-0.6137 -3.228,-0.6137 -1.712,0 -3.151,0.3712 -4.318,1.1137 -1.151,0.7424 -1.72,1.7045 -1.704,2.8863 -0.016,1.0152 0.356,1.8409 1.113,2.4773 0.773,0.6364 2.046,1.1591 3.818,1.5682 l 5.955,1.2727 c 3.303,0.7121 5.758,1.8409 7.364,3.3864 1.621,1.5454 2.439,3.5682 2.454,6.0682 -0.015,2.1969 -0.659,4.1363 -1.932,5.8181 -1.257,1.6667 -3.007,2.9697 -5.25,3.9091 -2.242,0.9394 -4.818,1.4091 -7.727,1.4091 -4.273,0 -7.712,-0.8939 -10.318,-2.6818 -2.606,-1.803 -4.159,-4.3106 -4.659,-7.5227 l 8.023,-0.7728 c 0.363,1.5758 1.136,2.7652 2.318,3.5682 1.182,0.8031 2.719,1.2046 4.613,1.2046 1.955,0 3.523,-0.4015 4.705,-1.2046 1.197,-0.803 1.795,-1.7954 1.795,-2.9772 0,-1 -0.386,-1.8258 -1.159,-2.4773 -0.757,-0.6515 -1.939,-1.1515 -3.545,-1.5 l -5.955,-1.25 c -3.348,-0.697 -5.825,-1.8712 -7.432,-3.5227 -1.606,-1.6667 -2.401,-3.7728 -2.386,-6.3182 -0.015,-2.1515 0.568,-4.0152 1.75,-5.5909 1.197,-1.5909 2.856,-2.8182 4.977,-3.6819 2.137,-0.8787 4.599,-1.3181 7.387,-1.3181 4.091,0 7.31,0.8712 9.659,2.6136 2.363,1.7424 3.826,4.0985 4.386,7.0682 z"
     fill="#f8f8fa"
     id="path12" />
  <path
     d="m 237.90857,67.495118 v -34.9091 h 8.228 v 34.9091 z m 4.137,-39.8636 c -1.303,0 -2.425,-0.4319 -3.364,-1.2955 -0.939,-0.8788 -1.409,-1.9318 -1.409,-3.1591 0,-1.2424 0.47,-2.2954 1.409,-3.1591 0.939,-0.8788 2.061,-1.3182 3.364,-1.3182 1.318,0 2.439,0.4394 3.363,1.3182 0.94,0.8637 1.409,1.9167 1.409,3.1591 0,1.2273 -0.469,2.2803 -1.409,3.1591 -0.924,0.8636 -2.045,1.2955 -3.363,1.2955 z"
     fill="#f8f8fa"
     id="path14" />
  <path
     d="m 267.26357,68.176918 c -3.409,0 -6.364,-0.75 -8.864,-2.25 -2.5,-1.5 -4.439,-3.5985 -5.818,-6.2954 -1.363,-2.697 -2.045,-5.8485 -2.045,-9.4546 0,-3.606 0.682,-6.7651 2.045,-9.4773 1.379,-2.7121 3.318,-4.8181 5.818,-6.3181 2.5,-1.5 5.455,-2.25 8.864,-2.25 3.409,0 6.364,0.75 8.864,2.25 2.5,1.5 4.431,3.606 5.795,6.3181 1.379,2.7122 2.068,5.8713 2.068,9.4773 0,3.6061 -0.689,6.7576 -2.068,9.4546 -1.364,2.6969 -3.295,4.7954 -5.795,6.2954 -2.5,1.5 -5.455,2.25 -8.864,2.25 z m 0.046,-6.5909 c 1.848,0 3.393,-0.5076 4.636,-1.5227 1.242,-1.0303 2.167,-2.4091 2.773,-4.1364 0.621,-1.7273 0.931,-3.6515 0.931,-5.7727 0,-2.1364 -0.31,-4.0682 -0.931,-5.7955 -0.606,-1.7424 -1.531,-3.1288 -2.773,-4.1591 -1.243,-1.0303 -2.788,-1.5454 -4.636,-1.5454 -1.894,0 -3.47,0.5151 -4.728,1.5454 -1.242,1.0303 -2.174,2.4167 -2.795,4.1591 -0.606,1.7273 -0.909,3.6591 -0.909,5.7955 0,2.1212 0.303,4.0454 0.909,5.7727 0.621,1.7273 1.553,3.1061 2.795,4.1364 1.258,1.0151 2.834,1.5227 4.728,1.5227 z"
     fill="#f8f8fa"
     id="path16" />
  <path
     d="m 296.64157,47.040618 v 20.4545 h -8.228 v -34.9091 h 7.864 v 5.9318 h 0.409 c 0.803,-1.9545 2.083,-3.5075 3.841,-4.6591 1.773,-1.1515 3.962,-1.7272 6.568,-1.7272 2.409,0 4.508,0.5151 6.296,1.5454 1.803,1.0303 3.197,2.5227 4.181,4.4773 1,1.9545 1.493,4.3257 1.478,7.1136 v 22.2273 h -8.228 v -20.9545 c 0,-2.3334 -0.606,-4.1591 -1.818,-5.4773 -1.197,-1.3182 -2.856,-1.9773 -4.977,-1.9773 -1.44,0 -2.72,0.3182 -3.841,0.9546 -1.106,0.6212 -1.977,1.5227 -2.614,2.7045 -0.621,1.1818 -0.931,2.6136 -0.931,4.2955 z"
     fill="#f8f8fa"
     id="path18" />
  <defs
     id="defs25">
    <linearGradient
       id="paint0_linear_1446_423"
       x1="-0.000244664"
       y1="3.5278401e-08"
       x2="112.736"
       y2="68.425003"
       gradientUnits="userSpaceOnUse"
       gradientTransform="translate(-0.0134277,-3.7548824)">
      <stop
         stop-color="#FF00A8"
         id="stop20" />
      <stop
         offset="1"
         stop-color="#FFAA00"
         id="stop22" />
    </linearGradient>
  </defs>
</svg>
