<?xml version="1.0" standalone="no"?>
<!DOCTYPE svg PUBLIC "-//W3C//DTD SVG 20010904//EN"
 "http://www.w3.org/TR/2001/REC-SVG-20010904/DTD/svg10.dtd">
<svg version="1.0" xmlns="http://www.w3.org/2000/svg"
 width="1200.000000pt" height="1200.000000pt" viewBox="0 0 1200.000000 1200.000000"
 preserveAspectRatio="xMidYMid meet">
<metadata>
Created by potrace 1.16, written by Peter Selinger 2001-2019
</metadata>
<g transform="translate(0.000000,1200.000000) scale(0.100000,-0.100000)"
fill="#000000" stroke="none">
<path d="M1033 10145 c-193 -35 -353 -117 -495 -253 -120 -115 -200 -249 -255
-427 l-28 -90 0 -3375 c0 -3225 1 -3378 18 -3440 38 -137 73 -215 140 -315
102 -151 279 -292 441 -352 136 -50 173 -55 428 -60 l248 -5 2 3106 3 3107
2110 -1468 c1161 -808 2163 -1505 2227 -1550 l117 -82 2221 1531 c1222 841
2225 1527 2228 1523 4 -4 8 -1393 10 -3087 l3 -3081 147 7 c796 37 1089 238
1152 791 14 128 14 6616 -1 6720 -58 421 -396 753 -820 807 l-96 12 -219 -161
c-121 -89 -1209 -891 -2419 -1782 -1210 -892 -2206 -1619 -2212 -1616 -7 2
-1090 803 -2407 1780 -2232 1654 -2397 1775 -2433 1774 -21 0 -70 -7 -110 -14z"/>
</g>
</svg>
