<?xml version="1.0" encoding="UTF-8" standalone="no"?>
<!-- Svg Vector Icons : http://www.onlinewebfonts.com/icon -->

<svg
   version="1.1"
   x="0px"
   y="0px"
   viewBox="0 0 531.02112 979.90002"
   enable-background="new 0 0 1000 1000"
   xml:space="preserve"
   id="svg18"
   sodipodi:docname="8635879f5f2d8bbe33f60811fa6b2666.svg"
   width="531.02112"
   height="979.90002"
   xmlns:inkscape="http://www.inkscape.org/namespaces/inkscape"
   xmlns:sodipodi="http://sodipodi.sourceforge.net/DTD/sodipodi-0.dtd"
   xmlns="http://www.w3.org/2000/svg"
   xmlns:svg="http://www.w3.org/2000/svg"><defs
   id="defs22" /><sodipodi:namedview
   id="namedview20"
   pagecolor="#ffffff"
   bordercolor="#666666"
   borderopacity="1.0"
   inkscape:pageshadow="2"
   inkscape:pageopacity="0.0"
   inkscape:pagecheckerboard="0" />
<metadata
   id="metadata2"> Svg Vector Icons : http://www.onlinewebfonts.com/icon </metadata>
<g
   id="g16"
   transform="translate(-234.36129,-10.1)"><path
     d="m 668.9,407.9 -1.1,0.8 c -0.2,0.2 -5.5,4.1 -8.3,6.3 l -12.6,10.1 16,2.5 c 1,0.2 2.5,0.3 4.7,0.5 27.4,2.4 43.7,7.2 48.2,14.3 7.9,12.3 7.4,26.1 -1.5,37.7 -10.1,13.2 -23,24.6 -37.7,37 -6.2,5.3 -13.6,9.7 -21.4,14.5 -3.8,2.3 -7.8,4.7 -11.8,7.4 l -22.7,14.7 27,-1.7 c 35.5,-2.2 84.5,-28.6 105,-56.5 12.6,-17.2 16.1,-38.2 9.2,-56.3 -6.5,-17.3 -21.4,-29.6 -40.8,-33.9 l -0.7,-0.1 c -6.1,-0.7 -12.3,-1.1 -18.6,-1.1 -18.5,0 -31.2,3.3 -31.7,3.4 z"
     id="path4" /><path
     d="m 472.7,398.9 c 6.3,5.9 12.8,12.1 18.9,18.3 l 4.4,4.5 5.8,-4.5 c 0.9,-0.7 1.8,-1.4 2.8,-2.2 l 5.2,-4 -3.6,-5.5 c -3.9,-5.8 -7.7,-11.6 -11.6,-17.4 -8.5,-12.8 -17.3,-26 -25.8,-39.1 -23.9,-37 -21.5,-67.6 7.9,-99.3 9.9,-10.7 21.5,-20.5 32.7,-30 4,-3.4 8.1,-6.9 12.1,-10.4 31.6,-27.6 62.2,-59.4 72.7,-104.5 7,-30.2 1,-55.6 -17.9,-75.7 l -17.9,-19 5.7,25.4 c 9,39.7 -2.1,74.3 -33.8,105.6 -6.4,6.3 -13.4,12.3 -20.3,18.1 -5,4.2 -10.1,8.5 -15,13 -6.8,6.3 -13.9,12.6 -20.7,18.7 -20,18 -40.7,36.6 -59.7,56.3 -15.8,16.3 -18.8,38.8 -8.9,64.9 14,36.6 41,62.1 67,86.8 z"
     id="path6" /><path
     d="m 390.6,484.3 h 0.5 c 0.8,0 1.5,0 2.3,0.1 l -7,3.5 c -9,4.5 -28,20.2 -26.2,37.5 1.3,12.5 12.6,21.5 33.5,26.9 18.7,4.8 41.9,7.2 68.9,7.2 0,0 0,0 0,0 76.4,0 161,-19.4 161.8,-19.6 l 5.5,-1.3 V 533 c 0,-2.5 0,-4.6 -18.1,-27.9 l -2.8,-3.6 -4.5,1.1 c -0.7,0.2 -69.1,16.4 -164.2,16.4 -7,0 -14,-0.1 -20.9,-0.3 -12.6,-0.3 -21.1,-3.2 -24.1,-8 -3.2,-5.4 0.5,-13.2 0.5,-13.2 l 6.7,-13 c 1.3,0 2.5,0 3.8,0 115.6,0 240,-35.1 241.3,-35.4 l -2.5,-13.9 c -1,0.1 -53.5,4.2 -107.4,8.2 4.5,-4.6 9,-8.9 13.4,-13 10,-9.5 19.4,-18.5 26.9,-29 14.9,-21.1 14.5,-44.2 -1,-65.2 -5.7,-7.7 -11.3,-16.1 -18.4,-27.3 -13.6,-21.6 -13,-34.4 2.5,-52.5 9.7,-11.4 21.7,-22.4 36.9,-33.8 12.7,-9.6 26.3,-18.4 40.7,-27.8 6.5,-4.3 13.3,-8.7 20.3,-13.3 l 24.5,-16.4 -29.3,3.4 c -2,0.2 -3.6,0.3 -5,0.4 -2.7,0.2 -5.1,0.3 -7.5,1.4 -8.3,3.7 -16.8,7.4 -25.1,11 -21.6,9.4 -44,19 -65,30.8 -15.7,8.9 -31,23.2 -42.9,40.3 -23.6,33.8 -19.6,70.5 12.3,112.1 21.8,28.5 22.1,33.1 4,62.7 -1.6,2.6 -1.2,4.9 -0.9,7.3 0.2,1.2 0.4,2.8 0.7,5.3 l 0.5,4.5 c -48.1,3.5 -94.2,6.8 -102.9,6.8 H 422 c -32.6,-0.8 -42.4,-4.4 -45.2,-6.1 1.5,-1.8 6.1,-6.1 19.6,-12.5 10.2,-4.9 20,-8.4 20.4,-8.6 l 5.2,-1.9 -1.1,-11.9 h -6.5 c -2.2,0 -26.8,6.4 -46.7,13.2 -42.9,14.7 -49.1,24.9 -49.5,33 -0.7,14.6 20.3,22.8 72.4,28 z"
     id="path8" /><path
     d="m 441.4,714.7 c -63.7,0 -96.5,-8.6 -96.8,-8.7 l -3.2,-0.9 c 9.8,0.3 20.3,0.5 31.5,0.5 0,0 0,0 0,0 64.6,0 152.9,-5.7 262.4,-17 h 0.2 c 61.2,-8.3 88.1,-28.8 92.7,-45.1 2.1,-7.2 0.1,-13.9 -5.4,-18.4 l -11.3,-9.4 -0.4,14.3 c -2.2,3.9 -20.6,13.7 -75.9,24.3 -38.1,7.3 -84.2,13.1 -112,14.1 -10.1,0.4 -20.8,0.5 -31.8,0.5 -37.8,0 -76.3,-2.1 -113.6,-4.2 -8.8,-0.5 -17.7,-1 -26.5,-1.4 h -0.1 c -31.2,-1.1 -34.3,-7.1 -34.3,-7.1 -0.1,-0.8 1.5,-5.1 11.4,-12.3 8,-5.8 17.8,-10.8 23.9,-13.2 l 24.6,-9.5 -26.1,-4.2 c -4.4,-0.7 -9.7,-1.1 -15.5,-1.1 -25.6,0 -73.3,7.6 -92.7,28.1 -5.8,6.1 -8.5,12.9 -8.1,20.1 0,0.2 0,0.7 0,1 -0.1,3.5 -0.3,10.7 6.5,17.8 10.9,11.2 37.3,18.2 80.3,21 l 16.8,14.2 c 1.5,1.3 38.7,31.8 125.6,31.8 27.1,0 56.5,-3 87.4,-9 52.9,-10.2 151.5,-38.7 208.5,-63.4 l -4.8,-13.4 C 610.8,706 504.9,714.7 441.4,714.7 Z"
     id="path10" /><path
     d="m 545.5,582.5 c -22.3,4.7 -43.5,7.1 -62.9,7.1 -49.6,0 -74.9,-15.4 -81.5,-20.1 l -4.6,-3.3 -32.5,28.2 5.9,5.4 c 1.4,1.3 36.1,32.3 117.7,32.3 38,0 80.4,-6.8 125.8,-20.2 l 25.5,-7.5 -91.8,-22.2 z"
     id="path12" /><path
     d="m 696,847 c 2,-25.1 -5.1,-33.5 -30.8,-32.4 -13,0.6 -25.8,3.8 -40,6 -1.3,-5.4 -2.7,-11.4 -4.3,-18 25.1,-9.1 49.4,-15.4 75.3,-9.2 18.1,4.3 29.9,15.5 30.5,33.9 1.2,36.3 0.3,72.7 0.3,110.4 -10,-1.8 -23.7,8.4 -25.9,-8.9 -15.2,3.9 -30.4,10.2 -46.1,11.4 -22.1,1.8 -36.2,-10 -40.3,-28.8 -4.7,-21.3 3.9,-43 23.3,-50.1 18.1,-6.7 37.6,-9.5 58,-14.3 z m 0.6,22.8 c -13.9,2 -25.9,2.8 -37.5,5.7 -11.6,2.9 -17.7,15.8 -14.3,27 3.6,11.9 14,17.4 26.7,14.4 21.2,-5.2 25.2,-10.3 25,-32.6 0.1,-3.6 0.1,-7.2 0.1,-14.5 z m -237.8,67.7 c -7.5,0 -14.3,0 -21.8,0 -1.3,-3.5 -2.6,-7.2 -4.2,-11.3 -1.5,0.2 -3,-0.1 -3.8,0.5 -12.9,9.5 -26.9,14.9 -43.2,14.1 -20.5,-1 -33.4,-9.7 -38.5,-26.7 -5.7,-19.4 0.5,-41.1 18,-49.9 13.4,-6.8 29.1,-9.2 44,-12.9 6,-1.5 12.5,-1.1 18.7,-1.5 3.3,-26.4 -4.7,-35.9 -29.6,-35.4 -6.8,0.1 -13.6,1.2 -20.3,2.4 -6.6,1.2 -13,3.1 -19.5,4.7 -7.1,-18.5 -7.5,-20.3 10.1,-24 17.9,-3.8 36.8,-6 54.9,-4.7 22.5,1.6 33.5,12.6 34.9,34.9 2.1,32.7 1.1,65.6 1.4,98.5 0,3.7 -0.7,7.2 -1.1,11.3 z M 428,870.1 c -12.7,1.8 -25,2.5 -36.6,5.4 -11.8,2.9 -17.2,15 -13.9,27.1 2.9,11 12.4,17.5 24,14.7 28.8,-7.2 30.7,-12 26.5,-47.2 z m 48.2,-74.8 c 1.7,-0.9 2.1,-1.3 2.5,-1.3 31.2,-1 30.9,-0.9 39.5,29.1 7.5,25.9 15.7,51.7 23.6,77.5 1.2,0.2 2.5,0.4 3.7,0.6 8.7,-35.4 17.4,-70.8 26.3,-106.8 8.7,0 18.5,0 31.5,0 -7.4,28 -13.7,54.7 -21.6,81 -5.2,17.4 -13,34 -18.8,51.2 -3.2,9.6 -8.9,13.1 -18.4,11.6 -1.3,-0.2 -2.8,-0.3 -4.1,0 C 525,941.4 518,934.7 513.8,919.7 502.3,878.2 489,837.1 476.2,795.3 Z M 277.4,990 c -4.9,-6 -9.5,-11.6 -15.3,-18.6 29.3,-13.7 31.7,-39.2 31.3,-66.8 -0.7,-48.4 -0.2,-96.7 -0.1,-145.1 0,-5 0,-9.9 0,-16.1 11.2,0 21.3,0 32.3,0 0.2,3.6 0.6,7.1 0.6,10.6 0,53.8 0.2,107.7 -0.2,161.5 -0.3,39.5 -11.2,56 -48.6,74.5 z"
     id="path14" /></g>
</svg>
