<?xml version="1.0" standalone="no"?>
<!DOCTYPE svg PUBLIC "-//W3C//DTD SVG 20010904//EN"
 "http://www.w3.org/TR/2001/REC-SVG-20010904/DTD/svg10.dtd">
<svg version="1.0" xmlns="http://www.w3.org/2000/svg"
 width="1200.000000pt" height="629.000000pt" viewBox="0 0 1200.000000 629.000000"
 preserveAspectRatio="xMidYMid meet">
<metadata>
Created by potrace 1.16, written by Peter Selinger 2001-2019
</metadata>
<g transform="translate(0.000000,629.000000) scale(0.100000,-0.100000)"
fill="#000000" stroke="none">
<path d="M5345 5478 c-4 -18 -152 -766 -329 -1663 -177 -896 -321 -1633 -319
-1637 4 -7 783 -12 783 -5 0 4 359 1801 365 1825 l6 23 377 -3 c369 -3 378 -3
419 -26 57 -30 77 -70 76 -152 -1 -39 -61 -383 -152 -861 -83 -438 -151 -800
-151 -803 0 -10 818 -7 824 3 3 4 74 406 157 892 140 820 151 891 146 974 -20
337 -283 542 -759 594 -54 6 -257 11 -453 11 -278 0 -355 3 -355 13 0 11 144
777 155 825 l5 22 -394 0 -395 0 -6 -32z"/>
<path d="M2337 4628 c-3 -13 -150 -754 -326 -1648 -177 -894 -323 -1635 -326
-1647 l-5 -23 394 0 394 0 6 28 c14 67 156 819 156 825 0 3 222 7 493 10 488
4 493 4 597 29 474 116 854 452 1030 910 116 302 133 714 41 968 -96 263 -309
441 -624 520 -186 46 -261 50 -1071 50 l-754 0 -5 -22z m1386 -627 c134 -35
210 -88 262 -183 38 -69 44 -178 20 -334 -35 -227 -97 -367 -215 -485 -86 -87
-172 -134 -310 -170 -76 -20 -117 -23 -382 -26 -164 -3 -298 -2 -298 2 0 3 45
275 100 605 55 330 100 602 100 605 0 3 146 5 323 5 288 0 332 -2 400 -19z"/>
<path d="M7845 4638 c-4 -14 -655 -3312 -655 -3322 0 -3 177 -6 393 -6 l393 0
77 413 c43 226 80 420 83 429 4 15 47 17 492 21 446 3 495 6 577 24 128 30
205 57 330 118 366 177 646 515 760 914 47 164 59 262 59 466 -1 173 -3 199
-27 290 -103 390 -386 600 -879 654 -148 17 -1597 15 -1603 -1z m1367 -632
c138 -30 240 -101 286 -200 32 -67 38 -158 18 -292 -49 -336 -158 -520 -369
-624 -153 -75 -202 -83 -539 -88 -214 -2 -298 0 -298 8 0 11 186 1135 196
1183 l6 27 316 0 c234 0 334 -4 384 -14z"/>
</g>
</svg>
