<?xml version="1.0" standalone="no"?>
<!DOCTYPE svg PUBLIC "-//W3C//DTD SVG 20010904//EN"
 "http://www.w3.org/TR/2001/REC-SVG-20010904/DTD/svg10.dtd">
<svg version="1.0" xmlns="http://www.w3.org/2000/svg"
 width="200.000000pt" height="200.000000pt" viewBox="0 0 200.000000 200.000000"
 preserveAspectRatio="xMidYMid meet">
<metadata>
Created by potrace 1.16, written by Peter Selinger 2001-2019
</metadata>
<g transform="translate(0.000000,200.000000) scale(0.100000,-0.100000)"
fill="#000000" stroke="none">
<path d="M527 1706 c-9 -7 -22 -26 -27 -42 -15 -44 -220 -1062 -220 -1093 0
-40 32 -68 92 -81 276 -59 1035 -210 1056 -210 35 1 60 20 72 56 15 44 220
1062 220 1093 0 31 -31 68 -63 76 -116 27 -1065 215 -1085 215 -15 0 -35 -7
-45 -14z m606 -142 c388 -79 531 -112 536 -123 5 -10 -35 -228 -103 -561
l-111 -545 -27 -3 c-15 -2 -266 45 -558 104 -391 79 -534 112 -540 123 -5 10
34 222 102 556 111 549 117 572 157 561 9 -2 254 -53 544 -112z"/>
<path d="M1364 1449 c-7 -11 0 -13 121 -39 54 -12 100 -22 101 -23 1 -1 -25
-132 -57 -291 -54 -262 -62 -324 -41 -289 16 25 124 585 115 594 -14 14 -233
58 -239 48z"/>
<path d="M888 1148 c-3 -7 -16 -66 -29 -131 -18 -88 -21 -120 -12 -125 7 -4
66 -18 133 -32 88 -17 123 -21 128 -12 12 18 56 251 49 258 -7 7 -222 54 -248
54 -9 0 -19 -6 -21 -12z m155 -59 c37 -7 67 -16 67 -20 0 -20 -33 -165 -39
-172 -6 -6 -168 20 -179 29 -4 3 28 166 35 177 3 5 15 6 27 3 11 -2 51 -10 89
-17z"/>
<path d="M475 1028 c-17 -47 -85 -422 -78 -429 11 -11 453 -102 460 -95 13 13
-13 20 -223 62 -120 24 -218 45 -220 47 -1 1 17 96 41 210 23 114 39 210 34
213 -5 3 -11 -1 -14 -8z"/>
</g>
</svg>
