<?xml version="1.0" standalone="no"?>
<!DOCTYPE svg PUBLIC "-//W3C//DTD SVG 20010904//EN"
 "http://www.w3.org/TR/2001/REC-SVG-20010904/DTD/svg10.dtd">
<svg version="1.0" xmlns="http://www.w3.org/2000/svg"
 width="512.000000pt" height="512.000000pt" viewBox="0 0 512.000000 512.000000"
 preserveAspectRatio="xMidYMid meet">
<metadata>
Created by potrace 1.16, written by Peter Selinger 2001-2019
</metadata>
<g transform="translate(0.000000,512.000000) scale(0.100000,-0.100000)"
fill="#000000" stroke="none">
<path d="M1327 5083 c689 -2 1817 -2 2505 0 689 1 126 2 -1252 2 -1378 0
-1941 -1 -1253 -2z"/>
<path d="M70 2565 l0 -2505 2510 0 2510 0 0 2505 0 2505 -2510 0 -2510 0 0
-2505z m3925 205 c126 -12 208 -36 291 -86 70 -42 161 -128 211 -201 35 -51
36 -53 18 -73 -19 -21 -41 -28 -29 -8 4 7 3 8 -5 4 -6 -4 -9 -11 -6 -16 5 -8
-265 -190 -283 -190 -6 0 -19 15 -31 33 -31 51 -92 104 -146 129 -63 29 -182
31 -232 5 -37 -20 -47 -21 -37 -6 14 23 -45 -24 -61 -48 -10 -14 -12 -22 -6
-19 14 9 14 5 -4 -37 -20 -48 -19 -113 4 -162 35 -78 102 -123 343 -230 59
-26 105 -51 102 -56 -3 -5 1 -6 9 -3 21 8 119 -44 111 -58 -4 -7 -3 -8 4 -4
14 9 58 -14 150 -77 187 -129 275 -302 275 -542 -1 -129 -19 -209 -70 -307
-41 -78 -140 -177 -224 -226 -89 -50 -226 -91 -346 -103 -391 -38 -721 97
-905 368 -27 41 -48 78 -46 83 3 10 345 210 358 210 5 0 18 -15 29 -33 37 -61
156 -166 223 -197 164 -77 388 -49 479 58 17 20 27 28 21 17 -13 -26 -48 -57
-92 -84 -19 -11 -30 -21 -24 -21 14 0 83 50 107 78 11 11 21 33 23 49 1 15 6
52 10 81 13 105 -40 178 -189 257 -41 22 -73 43 -71 47 3 4 -1 5 -9 2 -16 -6
-290 118 -386 175 -100 59 -175 124 -225 194 -95 134 -117 208 -117 392 0 113
3 140 25 205 32 92 104 200 169 252 131 103 244 142 452 157 11 0 70 -4 130
-9z m-1067 -222 l-3 -203 -2 198 c-2 108 -7 197 -11 197 -4 0 -6 -85 -4 -190
l3 -190 -316 0 -315 0 0 -927 0 -928 -225 0 -225 0 0 928 0 927 -315 0 -315 0
-2 173 -2 172 -6 -180 -6 -180 -2 180 c-1 99 1 190 4 203 l6 22 869 0 869 0
-2 -202z"/>
<path d="M1842 1438 c-1 -505 1 -918 6 -918 6 0 6 640 -1 1505 -1 182 -3 -83
-5 -587z"/>
<path d="M2265 1435 c0 -506 1 -714 2 -463 2 251 2 665 0 920 -1 255 -2 49 -2
-457z"/>
<path d="M1327 43 c689 -2 1817 -2 2505 0 689 1 126 2 -1252 2 -1378 0 -1941
-1 -1253 -2z"/>
</g>
</svg>
