<?xml version="1.0" standalone="no"?>
<!DOCTYPE svg PUBLIC "-//W3C//DTD SVG 20010904//EN"
 "http://www.w3.org/TR/2001/REC-SVG-20010904/DTD/svg10.dtd">
<svg version="1.0" xmlns="http://www.w3.org/2000/svg"
 width="1200.000000pt" height="1200.000000pt" viewBox="0 0 1200.000000 1200.000000"
 preserveAspectRatio="xMidYMid meet">

<g transform="translate(0.000000,1200.000000) scale(0.100000,-0.100000)"
fill="#000000" stroke="none">
<path d="M5728 11990 c-1927 -91 -3686 -1093 -4741 -2700 -814 -1241 -1138
-2737 -911 -4210 193 -1253 785 -2419 1685 -3319 1814 -1814 4580 -2273 6884
-1141 2555 1255 3875 4141 3155 6895 -632 2421 -2698 4192 -5190 4449 -162 17
-535 37 -650 34 -41 0 -145 -4 -232 -8z m1512 -3187 c384 -76 800 -202 1145
-346 262 -110 223 -81 329 -246 426 -664 691 -1266 866 -1961 129 -514 191
-1076 176 -1605 -5 -220 -21 -488 -31 -530 -6 -23 -194 -157 -422 -297 -310
-191 -619 -348 -956 -484 -196 -79 -507 -186 -523 -180 -43 16 -413 619 -400
651 2 7 33 22 68 35 172 62 569 264 551 279 -4 4 -38 31 -75 59 l-66 52 -94
-41 c-396 -176 -855 -300 -1313 -355 -213 -26 -749 -26 -955 -1 -479 59 -874
163 -1300 342 l-130 55 -74 -59 -74 -58 81 -46 c167 -92 406 -203 540 -250 16
-6 16 -11 -9 -59 -70 -140 -287 -488 -368 -591 -14 -18 -19 -17 -118 13 -340
106 -800 307 -1148 503 -275 155 -636 394 -649 431 -27 71 -40 774 -21 1056
76 1099 424 2109 1063 3082 l71 108 105 46 c280 123 647 248 947 324 232 57
454 103 485 98 24 -3 92 -123 170 -299 l42 -96 41 8 c77 14 351 39 556 50 283
16 636 2 973 -37 76 -9 139 -15 141 -13 2 2 46 92 99 200 94 193 96 196 124
192 15 -3 84 -16 153 -30z"/>
<path d="M4637 6444 c-251 -56 -448 -257 -517 -529 -24 -92 -29 -264 -11 -361
49 -263 254 -498 491 -563 111 -31 248 -29 348 5 114 38 178 78 268 169 141
142 214 325 217 545 5 334 -188 624 -476 715 -102 33 -228 40 -320 19z"/>
<path d="M7135 6446 c-169 -37 -302 -124 -401 -263 -220 -305 -196 -740 56
-1007 67 -72 178 -147 262 -176 87 -31 258 -39 348 -16 236 59 425 254 496
511 24 87 30 301 11 392 -56 262 -237 471 -472 543 -87 27 -220 34 -300 16z"/>
</g>
</svg>
