<?xml version="1.0" standalone="no"?>
<!DOCTYPE svg PUBLIC "-//W3C//DTD SVG 20010904//EN"
 "http://www.w3.org/TR/2001/REC-SVG-20010904/DTD/svg10.dtd">
<svg version="1.0" xmlns="http://www.w3.org/2000/svg"
 width="512.000000pt" height="512.000000pt" viewBox="0 0 512.000000 512.000000"
 preserveAspectRatio="xMidYMid meet">
<metadata>
Created by potrace 1.16, written by Peter Selinger 2001-2019
</metadata>
<g transform="translate(0.000000,512.000000) scale(0.100000,-0.100000)"
fill="#000000" stroke="none">
<path d="M187 4932 c-147 -147 -188 -194 -185 -211 2 -18 40 15 213 189 175
175 206 210 185 210 -19 0 -69 -44 -213 -188z"/>
<path d="M287 4832 c-227 -227 -288 -294 -285 -311 2 -17 59 35 313 289 255
255 305 310 285 310 -20 0 -89 -64 -313 -288z"/>
<path d="M387 4732 c-307 -307 -388 -393 -385 -411 2 -17 79 55 413 389 335
335 405 410 385 410 -20 0 -109 -84 -413 -388z"/>
<path d="M487 4632 c-388 -388 -488 -493 -485 -511 2 -17 99 74 513 489 415
415 505 510 485 510 -20 0 -129 -104 -513 -488z"/>
<path d="M587 4532 c-459 -459 -587 -592 -587 -612 0 -22 8 -17 70 45 l70 69
0 -75 0 -75 -70 -69 c-49 -49 -70 -77 -70 -94 0 -23 7 -18 70 44 l70 69 0 -75
0 -75 -70 -69 c-49 -49 -70 -77 -70 -94 0 -23 7 -18 70 44 l70 69 0 -75 0 -75
-70 -69 c-49 -49 -70 -77 -70 -94 0 -23 7 -18 70 44 l70 69 0 -75 0 -75 -70
-69 c-49 -49 -70 -77 -70 -94 0 -23 7 -18 70 44 l70 69 0 -75 0 -75 -70 -69
c-49 -49 -70 -77 -70 -94 0 -23 7 -18 71 44 l71 70 -6 -80 -6 -80 -65 -65
c-44 -45 -65 -73 -65 -90 0 -22 7 -18 65 40 l65 64 0 -75 0 -75 -65 -64 c-45
-45 -65 -72 -65 -89 0 -23 6 -19 66 39 l66 65 -4 -47 -3 -48 2442 0 c1911 0
2443 -3 2443 -12 0 -7 25 12 55 42 38 37 55 62 55 79 0 23 -4 21 -55 -29 l-55
-54 0 75 0 75 55 54 c38 37 55 62 55 79 0 23 -5 21 -58 -32 l-58 -57 -1327 0
-1327 0 0 110 0 110 1325 0 1325 0 0 63 0 63 60 59 c42 41 60 67 60 84 0 23
-5 20 -60 -34 -58 -57 -60 -58 -60 -32 l0 28 -1047 -1 c-577 -1 -1173 -1
-1325 -1 l-278 1 0 110 0 110 1325 0 1325 0 0 38 c0 33 8 45 60 97 42 41 60
67 60 84 0 23 -5 20 -60 -34 l-60 -59 0 47 0 47 -1325 0 -1325 0 0 115 0 115
1325 0 c1071 0 1325 2 1325 13 0 7 27 39 60 72 42 41 60 67 60 84 0 23 -5 20
-59 -33 l-59 -59 -4 72 -3 72 63 62 c43 43 62 69 62 87 0 21 -11 13 -92 -67
l-93 -92 -260 -7 c-143 -4 -1211 -7 -2372 -8 -1634 0 -2116 3 -2125 12 -9 9
-9 12 3 12 8 0 246 232 529 515 419 419 510 515 490 515 -20 0 -149 -124 -613
-588z"/>
<path d="M860 4605 c-419 -419 -510 -515 -490 -515 20 0 135 110 540 515 419
419 510 515 490 515 -20 0 -135 -110 -540 -515z"/>
<path d="M1060 4605 c-419 -419 -510 -515 -490 -515 20 0 135 110 540 515 419
419 510 515 490 515 -20 0 -135 -110 -540 -515z"/>
<path d="M1260 4605 c-419 -419 -510 -515 -490 -515 20 0 135 110 540 515 419
419 510 515 490 515 -20 0 -135 -110 -540 -515z"/>
<path d="M1460 4605 c-419 -419 -510 -515 -490 -515 20 0 135 110 540 515 419
419 510 515 490 515 -20 0 -135 -110 -540 -515z"/>
<path d="M1660 4605 c-419 -419 -510 -515 -490 -515 20 0 135 110 540 515 419
419 510 515 490 515 -20 0 -135 -110 -540 -515z"/>
<path d="M1860 4605 c-419 -419 -510 -515 -490 -515 20 0 135 110 540 515 419
419 510 515 490 515 -20 0 -135 -110 -540 -515z"/>
<path d="M2060 4605 c-419 -419 -510 -515 -490 -515 20 0 135 110 540 515 419
419 510 515 490 515 -20 0 -135 -110 -540 -515z"/>
<path d="M2260 4605 c-419 -419 -510 -515 -490 -515 20 0 135 110 540 515 419
419 510 515 490 515 -20 0 -135 -110 -540 -515z"/>
<path d="M2460 4605 c-419 -419 -510 -515 -490 -515 20 0 135 110 540 515 419
419 510 515 490 515 -20 0 -135 -110 -540 -515z"/>
<path d="M2660 4605 c-419 -419 -510 -515 -490 -515 20 0 135 110 540 515 419
419 510 515 490 515 -20 0 -135 -110 -540 -515z"/>
<path d="M2860 4605 c-419 -419 -510 -515 -490 -515 20 0 135 110 540 515 419
419 510 515 490 515 -20 0 -135 -110 -540 -515z"/>
<path d="M3060 4605 c-419 -419 -510 -515 -490 -515 20 0 135 110 540 515 419
419 510 515 490 515 -20 0 -135 -110 -540 -515z"/>
<path d="M3260 4605 c-419 -419 -510 -515 -490 -515 20 0 135 110 540 515 419
419 510 515 490 515 -20 0 -135 -110 -540 -515z"/>
<path d="M3460 4605 c-419 -419 -510 -515 -490 -515 20 0 135 110 540 515 419
419 510 515 490 515 -20 0 -135 -110 -540 -515z"/>
<path d="M3660 4605 c-419 -419 -510 -515 -490 -515 20 0 135 110 540 515 419
419 510 515 490 515 -20 0 -135 -110 -540 -515z"/>
<path d="M3860 4605 c-419 -419 -510 -515 -490 -515 20 0 135 110 540 515 419
419 510 515 490 515 -20 0 -135 -110 -540 -515z"/>
<path d="M4060 4605 c-419 -419 -510 -515 -490 -515 20 0 135 110 540 515 419
419 510 515 490 515 -20 0 -135 -110 -540 -515z"/>
<path d="M4260 4605 c-419 -419 -510 -515 -490 -515 20 0 135 110 540 515 419
419 510 515 490 515 -20 0 -135 -110 -540 -515z"/>
<path d="M4460 4605 c-419 -419 -510 -515 -490 -515 20 0 135 110 540 515 419
419 510 515 490 515 -20 0 -135 -110 -540 -515z"/>
<path d="M4630 4575 c-395 -395 -480 -485 -460 -485 37 0 953 917 948 949 -2
17 -94 -69 -488 -464z"/>
<path d="M4730 4475 c-315 -315 -380 -385 -360 -385 37 0 753 717 748 749 -2
17 -74 -50 -388 -364z"/>
<path d="M4830 4375 c-235 -235 -280 -285 -260 -285 37 0 553 517 548 549 -2
17 -54 -30 -288 -264z"/>
<path d="M4930 4275 c-155 -155 -181 -185 -160 -185 36 0 353 317 348 349 -2
18 -35 -10 -188 -164z"/>
<path d="M120 2284 c0 -9 -27 -44 -60 -78 -39 -41 -60 -71 -60 -87 0 -21 6
-18 55 31 61 61 63 58 39 -51 -14 -61 -23 -81 -55 -114 -23 -24 -39 -50 -39
-65 0 -23 1 -23 36 11 l37 34 -7 -80 c-6 -70 -11 -84 -37 -110 -16 -17 -29
-42 -29 -55 l0 -23 26 24 26 24 -7 -80 c-5 -57 -13 -86 -26 -101 -11 -11 -19
-31 -19 -43 0 -20 2 -22 15 -11 14 11 15 4 9 -61 -4 -41 -10 -81 -14 -89 -4
-8 -7 -70 -7 -137 0 -98 3 -121 13 -112 9 7 14 5 19 -10 3 -11 19 -28 35 -38
l30 -19 -50 -49 c-34 -33 -50 -57 -50 -74 0 -23 7 -19 72 44 l73 70 68 -5 67
-5 -140 -140 c-105 -105 -140 -146 -140 -165 0 -21 27 2 168 143 l167 167 75
0 75 0 -243 -243 c-186 -186 -242 -248 -242 -267 0 -20 48 23 268 243 l267
267 75 0 75 0 -343 -343 c-266 -266 -342 -348 -342 -367 0 -20 68 43 368 343
l367 367 75 0 75 0 -443 -443 c-346 -346 -442 -447 -442 -467 0 -20 88 63 468
443 l467 467 75 0 75 0 -515 -515 c-419 -419 -510 -515 -490 -515 20 0 135
110 540 515 l515 515 75 0 75 0 -515 -515 c-419 -419 -510 -515 -490 -515 20
0 135 110 540 515 l515 515 75 0 75 0 -515 -515 c-419 -419 -510 -515 -490
-515 20 0 135 110 540 515 l515 515 75 0 75 0 -515 -515 c-419 -419 -510 -515
-490 -515 20 0 135 110 540 515 l515 515 75 0 75 0 -515 -515 c-419 -419 -510
-515 -490 -515 20 0 135 110 540 515 l515 515 75 0 75 0 -515 -515 c-419 -419
-510 -515 -490 -515 20 0 135 110 540 515 l515 515 75 0 75 0 -515 -515 c-419
-419 -510 -515 -490 -515 20 0 135 110 540 515 l515 515 75 0 75 0 -515 -515
c-419 -419 -510 -515 -490 -515 20 0 135 110 540 515 l515 515 75 0 75 0 -515
-515 c-419 -419 -510 -515 -490 -515 20 0 135 110 540 515 l515 515 75 0 75 0
-515 -515 c-419 -419 -510 -515 -490 -515 20 0 135 110 540 515 l515 515 75 0
75 0 -515 -515 c-419 -419 -510 -515 -490 -515 20 0 135 110 540 515 l515 515
75 0 75 0 -515 -515 c-419 -419 -510 -515 -490 -515 20 0 135 110 540 515
l515 515 75 0 75 0 -515 -515 c-419 -419 -510 -515 -490 -515 20 0 135 110
540 515 l515 515 75 0 75 0 -515 -515 c-419 -419 -510 -515 -490 -515 20 0
135 110 540 515 l515 515 75 0 75 0 -515 -515 c-419 -419 -510 -515 -490 -515
20 0 135 110 540 515 l515 515 75 0 75 0 -515 -515 c-419 -419 -510 -515 -490
-515 20 0 135 110 540 515 l515 515 75 0 75 0 -515 -515 c-419 -419 -510 -515
-490 -515 20 0 135 110 540 515 l515 515 75 0 75 0 -515 -515 c-419 -419 -510
-515 -490 -515 20 0 135 110 540 515 l515 515 75 0 75 0 -515 -515 c-419 -419
-510 -515 -490 -515 20 0 135 110 540 515 l515 515 75 0 75 0 -515 -515 c-419
-419 -510 -515 -490 -515 20 0 135 109 539 514 441 441 519 515 550 521 122
23 162 100 142 275 -6 52 -6 89 0 94 12 13 12 59 0 51 -25 -15 -32 117 -8 143
9 10 17 29 17 42 0 22 -1 22 -19 6 -17 -16 -19 -15 -25 15 -13 65 -7 104 19
129 14 13 25 35 25 49 l0 25 -29 -28 -29 -28 -7 67 -8 67 37 37 c21 22 36 47
36 61 0 23 -2 22 -39 -14 l-40 -39 -4 34 c-2 19 -2 -10 0 -63 l5 -98 -2471 0
-2471 0 0 73 c0 39 3 89 6 110 l7 37 2458 0 2459 0 0 23 c0 14 18 40 45 67 30
29 45 53 45 69 0 24 -2 23 -44 -18 l-43 -42 -7 32 c-3 17 -6 44 -6 60 l0 29
-2450 0 c-2231 0 -2450 -1 -2450 -16z m4923 -652 c3 -4 8 -55 11 -114 l7 -108
-2494 0 -2494 0 4 103 c3 56 6 107 8 114 3 9 591 12 2479 12 1361 0 2477 -3
2479 -7z"/>
<path d="M4585 530 c-431 -431 -525 -530 -505 -530 37 0 1043 1007 1038 1039
-2 17 -103 -78 -533 -509z"/>
<path d="M4685 430 c-351 -351 -425 -430 -405 -430 37 0 843 807 838 839 -2
17 -83 -59 -433 -409z"/>
<path d="M4785 330 c-271 -271 -325 -330 -305 -330 37 0 643 607 638 639 -2
17 -63 -39 -333 -309z"/>
<path d="M4885 230 c-191 -191 -226 -230 -205 -230 37 0 443 407 438 439 -2
18 -44 -19 -233 -209z"/>
</g>
</svg>
