<?xml version="1.0" standalone="no"?>
<!DOCTYPE svg PUBLIC "-//W3C//DTD SVG 20010904//EN"
 "http://www.w3.org/TR/2001/REC-SVG-20010904/DTD/svg10.dtd">
<svg version="1.0" xmlns="http://www.w3.org/2000/svg"
 width="980.000000pt" height="766.000000pt" viewBox="0 0 980.000000 766.000000"
 preserveAspectRatio="xMidYMid meet">

<g transform="translate(0.000000,766.000000) scale(0.100000,-0.100000)"
fill="#000000" stroke="none">
<path d="M1990 7639 c-197 -5 -265 -11 -300 -23 -92 -34 -176 -90 -256 -171
-66 -66 -90 -99 -128 -176 -42 -87 -47 -104 -58 -214 -16 -155 -16 -3724 -1
-3973 10 -158 12 -166 46 -235 87 -175 244 -310 432 -372 44 -14 87 -28 95
-31 9 -3 -305 -324 -903 -922 l-918 -918 16 -80 c19 -88 62 -203 105 -280 40
-69 120 -142 211 -192 l76 -42 4502 0 4502 0 57 29 c92 47 175 114 215 174 71
106 126 279 113 350 -13 69 -102 159 -1234 1252 -348 335 -632 612 -632 615 0
3 37 13 83 24 45 10 109 29 141 42 187 76 344 246 401 434 31 103 37 617 31
2395 -3 919 -10 1713 -14 1766 -8 84 -15 106 -52 177 -72 140 -205 264 -357
334 l-68 32 -335 7 c-429 9 -5432 8 -5770 -2z m5938 -517 c57 -9 81 -18 112
-42 l40 -32 -2 -2001 -3 -2001 -41 -29 c-34 -24 -59 -31 -135 -41 -140 -16
-5848 -16 -5978 1 -73 10 -103 18 -132 39 l-39 27 0 2006 0 2007 30 22 c54 40
81 44 335 52 396 12 5727 4 5813 -8z m27 -5282 l300 -300 -3345 0 -3345 0 300
300 300 300 2745 0 2745 0 300 -300z m-1977 -919 c78 -158 142 -293 142 -299
0 -6 -116 -12 -325 -17 -387 -9 -2081 -2 -2091 8 -4 4 58 140 139 302 l146
295 924 0 924 0 141 -289z"/>
</g>
</svg>
